<?xml version="1.0" encoding="UTF-8" standalone="no"?>
<!-- Created with Inkscape (http://www.inkscape.org/) -->

<svg
   xmlns:dc="http://purl.org/dc/elements/1.1/"
   xmlns:cc="http://creativecommons.org/ns#"
   xmlns:rdf="http://www.w3.org/1999/02/22-rdf-syntax-ns#"
   xmlns:svg="http://www.w3.org/2000/svg"
   xmlns="http://www.w3.org/2000/svg"
   xmlns:sodipodi="http://sodipodi.sourceforge.net/DTD/sodipodi-0.dtd"
   xmlns:inkscape="http://www.inkscape.org/namespaces/inkscape"
   width="84.125198mm"
   height="100.79398mm"
   viewBox="0 0 84.125197 100.79398"
   version="1.1"
   id="svg60030"
   sodipodi:docname="Bartosat.svg"
   inkscape:version="0.92.3 (2405546, 2018-03-11)">
  <defs
     id="defs60024">
    <clipPath
       id="clipPath20"
       clipPathUnits="userSpaceOnUse">
      <path
         id="path18"
         d="M 11220,0 9028.57,3.60156 4224.97,4807.2 7266.24,7255.39 11220,3301.63 V 0"
         inkscape:connector-curvature="0" />
    </clipPath>
    <linearGradient
       id="linearGradient26"
       spreadMethod="pad"
       gradientTransform="matrix(0,7255.39,7255.39,0,7722.49,0)"
       gradientUnits="userSpaceOnUse"
       y2="0"
       x2="1"
       y1="0"
       x1="0">
      <stop
         id="stop22"
         offset="0"
         style="stop-opacity:1;stop-color:#d3dbdf" />
      <stop
         id="stop24"
         offset="1"
         style="stop-opacity:1;stop-color:#afb5b8" />
    </linearGradient>
  </defs>
  <sodipodi:namedview
     id="base"
     pagecolor="#ffffff"
     bordercolor="#666666"
     borderopacity="1.0"
     inkscape:pageopacity="0.0"
     inkscape:pageshadow="2"
     inkscape:zoom="0.35"
     inkscape:cx="540.52367"
     inkscape:cy="-546.58121"
     inkscape:document-units="mm"
     inkscape:current-layer="g69328"
     showgrid="false"
     fit-margin-top="0"
     fit-margin-left="0"
     fit-margin-right="0"
     fit-margin-bottom="0"
     inkscape:window-width="1920"
     inkscape:window-height="1001"
     inkscape:window-x="-9"
     inkscape:window-y="-9"
     inkscape:window-maximized="1"
     inkscape:pagecheckerboard="true" />
  <metadata
     id="metadata60027">
    <rdf:RDF>
      <cc:Work
         rdf:about="">
        <dc:format>image/svg+xml</dc:format>
        <dc:type
           rdf:resource="http://purl.org/dc/dcmitype/StillImage" />
        <dc:title></dc:title>
      </cc:Work>
    </rdf:RDF>
  </metadata>
  <g
     inkscape:label="Layer 1"
     inkscape:groupmode="layer"
     id="layer1"
     transform="translate(194.58624,70.121197)">
    <g
       id="g69328"
       transform="matrix(0.35277778,0,0,0.35277778,-160.71548,-114.16251)">
      <g
         transform="matrix(0.99999997,0,0,-0.99999997,-1113.0004,1371.3285)"
         inkscape:label="ink_ext_XXXXXX"
         id="g8">
        <g
           transform="scale(0.1)"
           id="g10">
          <g
             id="g14" />
          <g
             id="g69411"
             transform="matrix(0.04959577,-0.43518775,0.43518775,0.04959577,8642.5765,13199.464)">
            <path
               inkscape:connector-curvature="0"
               d="m 6448.07,4701.22 -364.56,364.56 c -19.53,19.53 -19.53,51.18 0,70.71 19.52,19.53 51.18,19.53 70.7,0 l 364.56,-364.56 c 19.54,-19.53 19.54,-51.18 0,-70.71 -19.52,-19.53 -51.18,-19.53 -70.7,0"
               style="fill:#3e4546;fill-opacity:1;fill-rule:nonzero;stroke:none"
               id="path30" />
            <path
               inkscape:connector-curvature="0"
               d="M 7943.63,2619.15 6202.95,4359.83 c -26.59,26.59 -26.59,69.69 0,96.27 l 560.95,560.95 c 26.58,26.59 69.69,26.59 96.27,0 L 8600.85,3276.37 c 26.58,-26.58 26.58,-69.69 0,-96.27 l -560.94,-560.95 c -26.58,-26.58 -69.69,-26.58 -96.28,0"
               style="fill:#3e4546;fill-opacity:1;fill-rule:nonzero;stroke:none"
               id="path32" />
            <path
               inkscape:connector-curvature="0"
               d="m 8292.79,2997.91 -239.7,239.71 293.26,293.25 -70.72,70.71 -293.24,-293.26 -251,251 293.25,293.26 h 0.01 l -70.71,70.71 -0.01,-0.01 -293.25,-293.25 -251.01,251.01 293.26,293.25 -70.71,70.71 -293.25,-293.26 -251,250.99 293.26,293.27 -70.71,70.71 h -0.01 l -293.25,-293.26 -251,250.99 293.26,293.26 0.01,0.01 -70.72,70.71 v -0.01 l -293.26,-293.25 -176.78,176.77 -70.7,-70.71 176.77,-176.78 -293.24,-293.25 h -0.01 l 70.71,-70.71 0.01,0.01 293.24,293.24 251,-251 -293.25,-293.24 v -0.01 l 70.71,-70.7 293.25,293.25 251,-250.99 -293.26,-293.26 70.72,-70.71 293.25,293.25 251,-251 -293.25,-293.25 -0.01,-0.01 70.72,-70.71 v 0.01 l 293.25,293.24 250.99,-250.98 -293.25,-293.25 70.72,-70.72 293.25,293.25 239.69,-239.7 c 19.53,-19.53 51.19,-19.53 70.71,0 19.53,19.53 19.53,51.18 0,70.71"
               style="fill:#90a6b4;fill-opacity:1;fill-rule:nonzero;stroke:none"
               id="path34" />
            <path
               inkscape:connector-curvature="0"
               d="m 8600.85,3276.37 -77.72,77.72 -657.22,-657.22 77.73,-77.72 c 26.58,-26.58 69.69,-26.58 96.27,0 l 560.94,560.95 c 26.58,26.58 26.58,69.69 0,96.27"
               style="fill:#bc3e30;fill-opacity:1;fill-rule:nonzero;stroke:none"
               id="path36" />
            <path
               inkscape:connector-curvature="0"
               d="m 5065.79,6083.51 -364.56,364.56 c -19.54,19.52 -19.54,51.18 0,70.71 19.52,19.52 51.18,19.52 70.7,0 l 364.56,-364.56 c 19.53,-19.53 19.53,-51.19 0,-70.71 -19.52,-19.54 -51.18,-19.54 -70.7,0"
               style="fill:#3e4546;fill-opacity:1;fill-rule:nonzero;stroke:none"
               id="path38" />
            <path
               inkscape:connector-curvature="0"
               d="M 3276.37,8600.85 5017.06,6860.17 c 26.58,-26.59 26.58,-69.69 0,-96.27 l -560.95,-560.95 c -26.58,-26.58 -69.69,-26.58 -96.28,0 L 2619.16,7943.63 c -26.6,26.58 -26.6,69.69 0,96.27 l 560.93,560.95 c 26.59,26.59 69.7,26.59 96.28,0"
               style="fill:#3e4546;fill-opacity:1;fill-rule:nonzero;stroke:none"
               id="path40" />
            <path
               inkscape:connector-curvature="0"
               d="m 4771.93,6518.78 -176.77,176.77 293.25,293.26 -70.7,70.71 h -0.01 l -293.25,-293.26 -251,251 293.25,293.26 h 0.01 l -70.71,70.71 v -0.01 l -293.26,-293.25 -251.01,251 293.27,293.26 -70.72,70.71 -293.25,-293.26 -251,250.99 293.26,293.27 h 0.01 l -70.72,70.71 -0.01,-0.01 -293.25,-293.25 -250.99,250.99 293.25,293.25 0.01,0.01 -70.72,70.72 v -0.01 l -293.26,-293.25 -239.7,239.7 c -19.54,19.53 -51.19,19.53 -70.72,0 -19.53,-19.52 -19.53,-51.18 0,-70.71 l 239.72,-239.71 -293.25,-293.25 h -0.01 l 70.71,-70.71 h 0.01 l 293.24,293.25 251,-251 -293.24,-293.24 -0.01,-0.01 70.71,-70.71 v 0.01 l 293.25,293.25 251,-251 -293.25,-293.25 70.71,-70.71 293.25,293.25 251,-251 L 3838.78,6724 h -0.01 l 70.72,-70.71 v 0.01 l 293.25,293.24 251,-250.99 -293.26,-293.25 v -0.01 l 70.72,-70.7 293.25,293.25 176.78,-176.77 70.7,70.71"
               style="fill:#90a6b4;fill-opacity:1;fill-rule:nonzero;stroke:none"
               id="path42" />
            <path
               inkscape:connector-curvature="0"
               d="m 2619.16,7943.63 77.71,-77.72 657.23,657.21 -77.73,77.73 c -26.59,26.59 -69.69,26.59 -96.28,0 L 2619.16,8039.9 c -26.6,-26.58 -26.6,-69.69 0,-96.27"
               style="fill:#bc3e30;fill-opacity:1;fill-rule:nonzero;stroke:none"
               id="path44" />
            <path
               inkscape:connector-curvature="0"
               d="m 5156.7,4172.26 -984.44,984.44 c -87.29,87.29 -87.29,228.83 0,316.12 L 5448.63,6749.2 c 87.29,87.29 228.83,87.29 316.12,0 l 984.44,-984.44 c 87.31,-87.3 87.31,-228.83 0,-316.13 L 5472.83,4172.26 c -87.3,-87.3 -228.83,-87.3 -316.13,0"
               style="fill:#edf5f7;fill-opacity:1;fill-rule:nonzero;stroke:none"
               id="path46" />
            <path
               inkscape:connector-curvature="0"
               d="m 4699.84,4629.12 -70.71,70.71 1592.49,1592.49 70.71,-70.7 -1592.49,-1592.5"
               style="fill:#90a6b4;fill-opacity:1;fill-rule:nonzero;stroke:none"
               id="path48" />
            <path
               inkscape:connector-curvature="0"
               d="m 5989.04,4688.47 -1300.57,1300.57 542.49,542.49 1300.58,-1300.56 -542.5,-542.5"
               style="fill:#bc3e30;fill-opacity:1;fill-rule:nonzero;stroke:none"
               id="path50" />
            <path
               inkscape:connector-curvature="0"
               d="m 4778.23,4250.31 -527.92,527.92 c -49.4,49.4 -49.4,129.49 0,178.89 l 60.76,60.76 706.82,-706.81 -60.77,-60.76 c -49.4,-49.4 -129.49,-49.4 -178.89,0"
               style="fill:#3e4546;fill-opacity:1;fill-rule:nonzero;stroke:none"
               id="path52" />
            <path
               inkscape:connector-curvature="0"
               d="m 6326.03,5719.9 -606.12,606.13 c -19.53,19.53 -19.53,51.18 0,70.71 19.53,19.53 51.18,19.53 70.71,0 l 606.12,-606.12 c 19.52,-19.54 19.52,-51.19 0,-70.72 -19.53,-19.53 -51.18,-19.53 -70.71,0"
               style="fill:#90a6b4;fill-opacity:1;fill-rule:nonzero;stroke:none"
               id="path54" />
            <path
               inkscape:connector-curvature="0"
               d="m 6143.23,6671.14 527.92,-527.92 c 49.39,-49.39 49.39,-129.49 0,-178.88 l -60.76,-60.77 -706.82,706.81 60.76,60.76 c 49.41,49.41 129.49,49.41 178.9,0"
               style="fill:#3e4546;fill-opacity:1;fill-rule:nonzero;stroke:none"
               id="path56" />
            <path
               inkscape:connector-curvature="0"
               d="m 7632.37,5885.53 c -118.43,-118.43 -605.05,176.2 -1086.9,658.05 -481.85,481.86 -776.48,968.48 -658.05,1086.9 118.41,118.42 605.04,-176.2 1086.89,-658.06 481.86,-481.85 776.48,-968.47 658.06,-1086.89"
               style="fill:#edf5f7;fill-opacity:1;fill-rule:nonzero;stroke:none"
               id="path58" />
            <path
               inkscape:connector-curvature="0"
               d="m 6545.46,6543.58 c -481.84,481.85 -776.47,968.47 -658.04,1086.9 -199.11,-199.11 -7.61,-788.85 474.25,-1270.7 481.85,-481.85 1071.59,-673.36 1270.7,-474.25 -118.43,-118.43 -605.05,176.2 -1086.91,658.05"
               style="fill:#3e4546;fill-opacity:1;fill-rule:nonzero;stroke:none"
               id="path60" />
            <path
               inkscape:connector-curvature="0"
               d="m 6663.19,6661.3 c -19.53,19.52 -19.53,51.18 0,70.7 l 443.99,444 c 19.53,19.53 51.18,19.53 70.72,0 19.52,-19.54 19.52,-51.19 0,-70.72 l -444,-443.98 c -19.53,-19.53 -51.18,-19.53 -70.71,0"
               style="fill:#90a6b4;fill-opacity:1;fill-rule:nonzero;stroke:none"
               id="path62" />
            <path
               inkscape:connector-curvature="0"
               d="m 7266.92,7051.12 c -59.07,-59.06 -154.84,-59.06 -213.91,0 -59.06,59.08 -59.06,154.85 0,213.91 59.07,59.07 154.84,59.07 213.91,0 59.07,-59.06 59.07,-154.83 0,-213.91"
               style="fill:#dc544f;fill-opacity:1;fill-rule:nonzero;stroke:none"
               id="path64" />
          </g>
        </g>
      </g>
    </g>
  </g>
</svg>
