<?xml version="1.0" encoding="UTF-8" standalone="no"?>
<!-- Created with Inkscape (http://www.inkscape.org/) -->

<svg
   version="1.1"
   id="svg2"
   xml:space="preserve"
   width="550.5733"
   height="590.64001"
   viewBox="0 0 550.5733 590.64001"
   sodipodi:docname="9558648_4187787.eps"
   xmlns:inkscape="http://www.inkscape.org/namespaces/inkscape"
   xmlns:sodipodi="http://sodipodi.sourceforge.net/DTD/sodipodi-0.dtd"
   xmlns="http://www.w3.org/2000/svg"
   xmlns:svg="http://www.w3.org/2000/svg"><defs
     id="defs6"><clipPath
       clipPathUnits="userSpaceOnUse"
       id="clipPath78"><path
         d="m 1597.03,1126.98 v -31.1 c 0,-8.5 -6.89,-15.4 -15.4,-15.4 H 977.035 c -30.504,0 -52.699,28.9 -44.801,58.4 l 70.606,265.1 98.29,369.2 h 307.4 l 10.6,-165.6 13.91,-215 11.49,-179.3 c 2.51,-39.9 35.61,-70.9 75.5,-70.9 h 61.6 c 8.51,0 15.4,-6.9 15.4,-15.4"
         id="path76" /></clipPath><clipPath
       clipPathUnits="userSpaceOnUse"
       id="clipPath292"><path
         d="m 1511.36,974.469 h 1122.18 l -624.9,125.551 H 858.75 l 437.8,-125.551 h 162.06 52.75"
         id="path290" /></clipPath><clipPath
       clipPathUnits="userSpaceOnUse"
       id="clipPath354"><path
         d="M 3623.24,842.379 C 3420.43,606.48 3140.93,441.781 2833.33,346.48 c -63.6,-19.699 -128.4,-36.398 -194,-50.199 -17.6,-3.699 -35.29,-7.199 -53,-10.5 -36.6,-6.801 -73.3,-12.601 -110.19,-17.601 -18.4,221.101 -66.7,449.699 -105.4,663 -8.11,44.902 -15.81,89.2 -22.81,132.49 -1.3,8.61 -2.69,17.21 -4,25.71 -12.5,81.6 -21.9,159.8 -25.79,233.2 -11.01,213.3 25.29,386.09 170.5,482.9 31.39,21 67.99,38.4 110.19,51.9 l 0.21,0.1 c 1.79,1.6 16.49,13.6 40.4,29.8 62.69,42.2 189.29,112.6 315.59,95.4 5.71,-0.8 11.4,-1.7 17.1,-2.9 22.9,-4.6 45.71,-12.3 68,-23.7 0,0 94.4,-14.51 194,-62.3 67.81,-32.6 137.81,-80.7 182.2,-150.2 68.8,-107.7 153.4,-571.1 206.91,-901.201"
         id="path352" /></clipPath><clipPath
       clipPathUnits="userSpaceOnUse"
       id="clipPath370"><path
         d="m 2486.12,1808.38 c -242.17,-57.48 -315.22,-354.67 -432.09,-443.46 -116.87,-88.81 -180.93,-200.3 -180.93,-200.3 0,0 -103.95,-17.42 -103.95,-55.23 0,-37.8 -34.65,-244.609 173.67,-303.511 208.33,-58.879 268.87,26.441 268.87,26.441 0,0 355.07,210.68 420.1,298.02 32.52,43.67 149.29,210.53 57.27,437.85 l -202.94,240.19"
         id="path368" /></clipPath><clipPath
       clipPathUnits="userSpaceOnUse"
       id="clipPath410"><path
         d="m 4109.13,2000.88 c -1.79,-12.9 -3.6,-25.7 -5.6,-38.6 -59.4,-391.4 -217.1,-775.3 -424.6,-1050.8 -17.79,-23.699 -36.4,-46.699 -55.69,-69.101 C 3420.43,606.48 3140.93,441.781 2833.33,346.48 c -63.6,-19.699 -128.4,-36.398 -194,-50.199 -17.6,-3.699 -35.29,-7.199 -53,-10.5 10.5,51.801 22.6,112.199 36.01,178.699 v 0.102 c 17.29,86.199 36.59,182.5 56.7,282.898 88.19,441.1 191.6,962.2 207.69,1060.9 4.1,25.3 9.5,48.6 16.7,69.8 10.3,30.2 24.41,56.3 44.31,78.6 4.2,4.6 8.59,9.1 13.29,13.5 3.5,3.2 7.3,6.4 11.1,9.5 70.1,55.8 194.01,80.3 418.61,76.7 113.25,-1.78 212.13,3.41 298.09,8.6 207.91,12.55 340.26,25.1 417.8,-61 0.9,-1 1.7,-2.1 2.5,-3.2"
         id="path408" /></clipPath></defs><sodipodi:namedview
     id="namedview4"
     pagecolor="#ffffff"
     bordercolor="#666666"
     borderopacity="1.0"
     inkscape:pageshadow="2"
     inkscape:pageopacity="0.0"
     inkscape:pagecheckerboard="0" /><g
     id="g8"
     inkscape:groupmode="layer"
     inkscape:label="ink_ext_XXXXXX"
     transform="matrix(1.3333333,0,0,-1.3333333,0,590.64)"><g
       id="g10"
       transform="scale(0.1)"><path
         d="m 2891.64,0 c -216.01,0.0195313 -445.25,54.9805 -671.33,169.602 -52.16,26.449 -105.34,53.238 -159.3,80.55 35.78,-1.672 71.65,-2.511 107.62,-2.511 100.81,0 202.17,6.609 302.55,19.871 0.17,-1.27 0.82,-2.422 1.83,-3.231 0.89,-0.722 1.99,-1.101 3.12,-1.101 0.23,0 0.45,0.011 0.68,0.039 36.96,5.011 73.75,10.832 110.44,17.652 17.74,3.301 35.47,6.809 53.11,10.52 65.75,13.828 130.7,30.57 194.45,50.308 308.33,95.531 588.67,260.66 792.22,497.422 0.96,1.117 1.38,2.59 1.14,4.059 l -4.87,-0.789 v 0 l 4.87,0.789 c -0.22,1.371 -0.44,2.742 -0.67,4.121 7.56,8.871 15.08,17.929 22.42,27 8.75,10.801 17.33,21.738 25.74,32.84 1.09,1.441 2.19,2.898 3.28,4.339 41.52,55.129 81.06,114.63 118.22,177.65 0.02,0.04 0.03,0.06 0.06,0.1 0.12,0.21 0.27,0.47 0.39,0.68 0.06,0.09 0.11,0.17 0.16,0.27 0.06,0.1 0.14,0.23 0.2,0.33 40.9,69.49 78.88,143.24 113.46,220.21 72.63,-265.06 106.92,-498.919 -55.78,-772.74 C 3648.48,189.359 3292.74,-0.0390625 2891.64,0 m 795.46,3338.17 c -106.87,82.28 -235.33,147.57 -387.67,191.02 -330.39,94.23 -792.19,44.37 -1052.27,304.9 -248.67,249.1 -543.53,368.86 -840.6,368.86 -25,0 -49.96,-0.84 -74.96,-2.53 283.57,154.79 594.91,229.41 894.26,229.41 498.05,0 962.91,-206.58 1211.18,-594.02 126.78,-197.85 203.97,-354.11 250.06,-497.64"
         style="fill:#ffffff;fill-opacity:1;fill-rule:nonzero;stroke:none"
         id="path12" /><path
         d="m 541.926,3843.59 c 1.863,1.69 3.73,3.38 5.601,5.07 515.693,464.35 1200.643,485.28 1699.633,-14.57 260.08,-260.53 721.88,-210.67 1052.27,-304.9 C 4438.62,3204.29 4241.65,1658.64 3678.94,911.48 3171.14,237.242 2070.86,84.9219 1331.63,416.648 682.039,708.172 224.648,1359.41 61.8672,2040.35 c -16.3281,68.28 -29.7539,137.26 -40.0117,206.72 -85.625,579.67 78.8395,1195.29 520.0705,1596.52"
         style="fill:#73cd91;fill-opacity:1;fill-rule:nonzero;stroke:none"
         id="path14" /><path
         d="m 2168.63,247.641 c -295.71,0 -587,56.82 -837,169.007 -222.7,99.942 -422.817,242.172 -596.212,413.372 339.522,-1.872 681.672,-2.829 1024.692,-2.872 21.62,-10.179 42.63,-19.718 62.54,-28.316 29.83,-12.883 57.18,-23.633 80.49,-31.191 23.35,-7.551 42.51,-11.981 56.67,-12.012 1.96,0 3.83,0.082 5.61,0.269 12.9,1.391 28.4,7.723 46.29,17.524 7.4,4.066 15.21,8.758 23.35,13.976 14.52,-1.546 27.96,-2.238 40.39,-2.238 82.68,0 120.5,30.512 132.13,42.449 59.05,0.129 118.11,0.289 177.15,0.473 6.42,-34.262 12.92,-68.812 19.35,-103.562 -55.28,0.152 -110.55,0.218 -165.8,0.218 -226.99,0 -454.04,-1.226 -683.11,-3.699 -2.73,-0.027 -4.92,-2.238 -4.94,-4.957 H 860.031 l 0.203,-0.203 C 1002.84,595.18 1160.54,493.48 1331.63,416.68 c 37,-16.598 74.9,-32 113.6,-46.098 l 977.83,248.809 c 20.48,-117.153 38.43,-235.461 48.09,-351.629 0.01,-0.082 0.02,-0.16 0.03,-0.25 -100.38,-13.262 -201.74,-19.871 -302.55,-19.871 m -429.55,589.507 c -339.37,0.082 -677.89,1.063 -1013.783,2.934 -207.879,207.858 -376.805,457.548 -499.469,725.638 177.75,-9.93 522.274,-28.5 804.352,-39.6 l -32.176,-120.86 -70.602,-265.09 c -1.203,-4.49 -1.777,-9 -1.777,-13.41 0.004,-7.69 1.742,-15.08 4.879,-21.74 H 858.75 c -0.02,0 -0.035,0 -0.055,0 -0.004,0 -0.007,0 -0.011,0 -0.016,0 -0.032,0 -0.047,0 -0.004,0 -0.004,0 -0.004,0 -0.02,0 -0.035,0 -0.051,0 -0.008,0 -0.012,0 -0.019,0 -0.012,0 -0.02,0 -0.032,0 -0.008,0 -0.015,0 -0.019,0 -0.016,0 -0.032,0 -0.043,0 -0.012,0 -0.02,-0.01 -0.031,-0.01 -0.004,0 -0.012,0 -0.016,0 -0.035,0 -0.07,0 -0.106,-0.01 -0.003,0 -0.003,0 -0.007,0 -0.336,-0.03 -0.668,-0.09 -0.985,-0.18 -0.008,-0.01 -0.015,-0.01 -0.023,-0.01 -0.004,0 -0.012,0 -0.02,-0.01 -1.117,-0.34 -2.093,-1.07 -2.742,-2.08 -0.922,-1.43 -1.047,-3.23 -0.336,-4.78 l 5.617,-12.23 c -76.187,-0.02 -152.324,-0.05 -228.465,-0.08 -2.761,0 -5,-2.24 -5,-5 v -0.13 c 0,-1.31 0.536,-2.6 1.465,-3.53 0.93,-0.94 2.219,-1.47 3.535,-1.47 v 0 h 233.157 l 10.683,-23.26 -16.511,-0.22 c -2.715,-0.03 -4.903,-2.22 -4.934,-4.93 l -1.461,-116.84 c -0.016,-1.328 0.504,-2.621 1.441,-3.57 0.942,-0.95 2.223,-1.489 3.559,-1.489 v 0 h 439.261 269.58 c 19.77,-10.511 40.27,-21.281 61.1,-32.062 37.02,-19.149 75.07,-38.309 111.85,-55.981 m 481.51,0.493 c 20.97,12.589 76.56,46.257 140.76,87.55 h 5.39 c 5.24,-28.793 10.64,-57.839 16.12,-87.121 -54.09,-0.16 -108.17,-0.308 -162.27,-0.429 m 1406.91,9.66 c 0,0.019 0,0.031 0,0.051 7.58,8.886 15.06,17.867 22.42,26.949 -7.34,-9.071 -14.86,-18.129 -22.42,-27 m 48.16,59.84 c 1.09,1.441 2.18,2.89 3.27,4.339 41.53,55.129 81.08,114.64 118.23,177.65 -37.16,-63.02 -76.7,-122.521 -118.22,-177.65 -1.09,-1.441 -2.19,-2.898 -3.28,-4.339 m 121.56,182.089 c 0.13,0.23 0.26,0.45 0.39,0.68 -0.12,-0.21 -0.27,-0.47 -0.39,-0.68 m 0.55,0.95 c 0.06,0.09 0.14,0.24 0.2,0.33 -0.06,-0.1 -0.14,-0.23 -0.2,-0.33 m -2015.06,41.78 c -16.03,3.54 -32.47,7.16 -49.03,10.78 -58.92,12.86 -119.35,25.73 -168.09,35.38 -24.38,4.83 -45.83,8.86 -62.74,11.69 -16.98,2.82 -29.17,4.46 -35.93,4.48 l -2.51,-0.1 -0.95,-0.04 c -0.05,0 -0.1,0 -0.15,0 -2.38,0 -6.07,0.82 -10.6,2.42 -1.73,5.41 -2.81,11.11 -3.19,17.03 l -11.49,179.3 -8.04,124.24 c 170.5,1.17 487.74,15.38 759.04,29.11 -47.28,-74.81 -87.53,-145.27 -135,-181.33 -116.87,-88.81 -180.93,-200.3 -180.93,-200.3 0,0 -62.23,-10.43 -90.39,-32.66 m 2224.02,425.26 c 0.01,0.02 0.01,0.03 0.02,0.05 l -0.02,-0.05 m 0.24,0.72 c 0.1,0.3 0.19,0.58 0.28,0.87 -0.08,-0.24 -0.2,-0.62 -0.28,-0.87 m 0.3,0.92 c 42.72,130.69 75.49,266.58 96.26,403.42 v 0 0 c 0.48,3.13 0.96,6.25 1.42,9.36 -20.67,-139.98 -53.98,-279.1 -97.68,-412.78 M 102.441,1890.99 c -15.0894,49.55 -28.6207,99.36 -40.5738,149.36 -16.3281,68.28 -29.7539,137.26 -40.0117,206.72 C 7.34766,2345.28 0.0195313,2444.53 0,2543.59 c -0.0390625,212.9 33.6719,424.92 102.441,624.02 V 1890.99 m 2874.909,92.81 c -1.41,0.3 -2.82,0.6 -4.23,0.88 l 0.04,-0.01 v 0 c -4.98,1.05 -9.92,1.87 -14.83,2.59 -18.96,39.66 -39.03,87.47 -52.86,136.05 51.54,60.62 212.22,266.66 182.15,446.67 -34.48,206.38 -170.31,283.46 -309.99,283.46 -5.02,0 -10.02,-0.1 -15.04,-0.3 0,0 -23.44,3.13 -56.74,7.54 -9.57,1.27 -18.94,2.31 -28.08,3.12 v 508.98 c -0.01,41.87 -33.94,75.8 -75.8,75.8 h -36.94 v 0 H 228.383 c 81.883,145.51 186.191,279.2 313.543,395.01 1.863,1.69 3.73,3.38 5.601,5.07 258.696,232.94 559.983,354.29 859.033,354.29 297.07,0 591.93,-119.76 840.6,-368.86 260.08,-260.53 721.88,-210.67 1052.27,-304.9 600.74,-171.33 829.91,-682.15 829.82,-1236.32 -0.01,-96.53 -6.98,-194.33 -20.16,-291.93 -0.78,1.07 -1.57,2.16 -2.46,3.14 -49.88,55.39 -122.44,69.95 -223.21,69.95 -55.88,0 -120.43,-4.48 -194.59,-8.95 -74.17,-4.48 -157.94,-8.96 -252.28,-8.96 -15,0 -30.27,0.11 -45.81,0.36 -14.36,0.23 -28.27,0.34 -41.82,0.34 -193.21,0 -305.25,-23.54 -371.57,-73.02"
         style="fill:#d9f1dd;fill-opacity:1;fill-rule:nonzero;stroke:none"
         id="path16" /><path
         d="M 4041.82,2901.92 H 2979.43 v 111.17 h 912.39 c 2.76,0 5,2.24 5,5 0,2.77 -2.24,5 -5,5 h -917.39 c -1.32,0 -2.61,-0.53 -3.54,-1.46 -0.93,-0.93 -1.46,-2.22 -1.46,-3.54 v -121.17 c 0,-1.32 0.53,-2.61 1.46,-3.54 0.93,-0.93 2.22,-1.46 3.54,-1.46 h 1067.39 c 2.76,0 5,2.24 5,5 0,2.76 -2.24,5 -5,5"
         style="fill:#1d2a30;fill-opacity:1;fill-rule:nonzero;stroke:none"
         id="path18" /><path
         d="m 3438.12,2834.93 v 61.99 c 0,2.76 -2.24,5 -5,5 -2.76,0 -5,-2.24 -5,-5 v -61.99 c 0,-2.76 2.24,-5 5,-5 2.76,0 5,2.24 5,5"
         style="fill:#1d2a30;fill-opacity:1;fill-rule:nonzero;stroke:none"
         id="path20" /><path
         d="m 3342.25,2889.82 34.4,-227.5 c 0.37,-2.44 2.47,-4.25 4.95,-4.25 h 51.52 c 2.76,0 5,2.24 5,5 0,2.76 -2.24,5 -5,5 h -47.22 l -33.77,223.25 c -0.41,2.73 -2.96,4.61 -5.69,4.19 -2.73,-0.41 -4.61,-2.96 -4.19,-5.69"
         style="fill:#1d2a30;fill-opacity:1;fill-rule:nonzero;stroke:none"
         id="path22" /><path
         d="m 3194.77,3468.17 v -445.08 h -85.83 v 573.49 h 85.83 v -20.3 c 0,-2.76 2.24,-5 5,-5 2.76,0 5,2.24 5,5 v 25.3 c 0,1.32 -0.53,2.6 -1.47,3.54 -0.93,0.93 -2.21,1.46 -3.53,1.46 h -95.83 c -1.32,0 -2.61,-0.53 -3.54,-1.46 -0.93,-0.94 -1.46,-2.22 -1.46,-3.54 v -583.49 c 0,-1.31 0.53,-2.6 1.46,-3.53 0.93,-0.93 2.22,-1.47 3.54,-1.47 h 95.83 c 1.32,0 2.6,0.54 3.53,1.47 0.94,0.93 1.47,2.22 1.47,3.53 v 450.08 c 0,2.76 -2.24,5 -5,5 -2.76,0 -5,-2.24 -5,-5"
         style="fill:#1d2a30;fill-opacity:1;fill-rule:nonzero;stroke:none"
         id="path24" /><path
         d="m 3194.77,3533.29 v -18.43 c 0,-2.77 2.24,-5 5,-5 2.76,0 5,2.23 5,5 v 18.43 c 0,2.76 -2.24,5 -5,5 -2.76,0 -5,-2.24 -5,-5"
         style="fill:#1d2a30;fill-opacity:1;fill-rule:nonzero;stroke:none"
         id="path26" /><path
         d="m 3438.12,3446.13 v 155.45 c 0,1.32 -0.53,2.6 -1.47,3.54 -0.93,0.93 -2.21,1.46 -3.53,1.46 h -233.35 c -2.76,0 -5,-2.24 -5,-5 0,-2.76 2.24,-5 5,-5 h 228.35 v -150.45 c 0,-2.76 2.24,-5 5,-5 2.76,0 5,2.24 5,5"
         style="fill:#1d2a30;fill-opacity:1;fill-rule:nonzero;stroke:none"
         id="path28" /><path
         d="m 3388.96,3023.09 h -90.82 v 418.04 h 90.82 c 2.76,0 5,2.24 5,5 0,2.76 -2.24,5 -5,5 h -95.82 c -1.32,0 -2.61,-0.54 -3.54,-1.47 -0.93,-0.93 -1.46,-2.22 -1.46,-3.53 v -428.04 c 0,-1.31 0.53,-2.6 1.46,-3.53 0.93,-0.93 2.22,-1.47 3.54,-1.47 h 95.82 c 2.76,0 5,2.24 5,5 0,2.77 -2.24,5 -5,5"
         style="fill:#1d2a30;fill-opacity:1;fill-rule:nonzero;stroke:none"
         id="path30" /><path
         d="m 3627.32,3128.09 v 318.04 c 0,1.31 -0.54,2.6 -1.47,3.53 -0.93,0.93 -2.22,1.47 -3.53,1.47 h -233.36 c -2.76,0 -5,-2.24 -5,-5 0,-2.76 2.24,-5 5,-5 h 228.36 v -313.04 c 0,-2.76 2.24,-5 5,-5 2.76,0 5,2.24 5,5"
         style="fill:#1d2a30;fill-opacity:1;fill-rule:nonzero;stroke:none"
         id="path32" /><path
         d="m 3383.96,3276.52 v -258.43 c 0,-2.76 2.24,-5 5,-5 2.76,0 5,2.24 5,5 v 258.43 c 0,2.76 -2.24,5 -5,5 -2.76,0 -5,-2.24 -5,-5"
         style="fill:#1d2a30;fill-opacity:1;fill-rule:nonzero;stroke:none"
         id="path34" /><path
         d="m 3383.96,3350.53 v -49.95 c 0,-2.76 2.24,-5 5,-5 2.76,0 5,2.24 5,5 v 49.95 c 0,2.76 -2.24,5 -5,5 -2.76,0 -5,-2.24 -5,-5"
         style="fill:#1d2a30;fill-opacity:1;fill-rule:nonzero;stroke:none"
         id="path36" /><path
         d="m 3383.96,3421.04 v -24.12 c 0,-2.76 2.24,-5 5,-5 2.76,0 5,2.24 5,5 v 24.12 c 0,2.76 -2.24,5 -5,5 -2.76,0 -5,-2.24 -5,-5"
         style="fill:#1d2a30;fill-opacity:1;fill-rule:nonzero;stroke:none"
         id="path38" /><path
         d="m 3103.94,3449.41 h 95.83 c 2.76,0 5,2.24 5,5 0,2.77 -2.24,5 -5,5 h -95.83 c -2.76,0 -5,-2.23 -5,-5 0,-2.76 2.24,-5 5,-5"
         style="fill:#1d2a30;fill-opacity:1;fill-rule:nonzero;stroke:none"
         id="path40" /><path
         d="m 3122.57,3345.53 h 77.2 c 2.76,0 5,2.23 5,5 0,2.76 -2.24,5 -5,5 h -77.2 c -2.76,0 -5,-2.24 -5,-5 0,-2.77 2.24,-5 5,-5"
         style="fill:#1d2a30;fill-opacity:1;fill-rule:nonzero;stroke:none"
         id="path42" /><path
         d="m 3293.14,3119.77 h 67.87 c 2.76,0 5,2.24 5,5 0,2.76 -2.24,5 -5,5 h -67.87 c -2.76,0 -5,-2.24 -5,-5 0,-2.76 2.24,-5 5,-5"
         style="fill:#1d2a30;fill-opacity:1;fill-rule:nonzero;stroke:none"
         id="path44" /><path
         d="m 3293.14,3079.87 h 95.82 c 2.76,0 5,2.24 5,5 0,2.76 -2.24,5 -5,5 h -95.82 c -2.76,0 -5,-2.24 -5,-5 0,-2.76 2.24,-5 5,-5"
         style="fill:#1d2a30;fill-opacity:1;fill-rule:nonzero;stroke:none"
         id="path46" /><path
         d="m 3433.12,3326.79 h 150.2 v -57.43 c 0,-2.76 2.24,-5 5,-5 2.77,0 5,2.24 5,5 v 62.43 c 0,1.32 -0.53,2.6 -1.46,3.54 -0.93,0.93 -2.22,1.46 -3.54,1.46 h -155.2 c -2.76,0 -5,-2.24 -5,-5 0,-2.76 2.24,-5 5,-5"
         style="fill:#1d2a30;fill-opacity:1;fill-rule:nonzero;stroke:none"
         id="path48" /><path
         d="m 3557.27,3274.36 h -119.15 v 19.36 c 0,2.76 -2.24,5 -5,5 -2.76,0 -5,-2.24 -5,-5 v -24.36 c 0,-1.31 0.53,-2.6 1.46,-3.53 0.93,-0.93 2.22,-1.47 3.54,-1.47 h 124.15 c 2.76,0 5,2.24 5,5 0,2.76 -2.24,5 -5,5"
         style="fill:#1d2a30;fill-opacity:1;fill-rule:nonzero;stroke:none"
         id="path50" /><path
         d="m 3417.71,2739.19 c 3.48,-25.6 6.97,-51.2 10.45,-76.8 0.38,-2.73 2.9,-4.65 5.63,-4.27 2.74,0.37 4.66,2.89 4.28,5.62 -3.48,25.6 -6.97,51.2 -10.46,76.8 -0.37,2.73 -2.89,4.65 -5.63,4.28 -2.73,-0.38 -4.65,-2.9 -4.27,-5.63"
         style="fill:#1d2a30;fill-opacity:1;fill-rule:nonzero;stroke:none"
         id="path52" /><path
         d="m 3408.11,2809.58 c 2.03,-14.93 4.07,-29.86 6.1,-44.79 0.37,-2.74 2.89,-4.65 5.63,-4.28 2.73,0.37 4.65,2.89 4.28,5.63 -2.03,14.93 -4.07,29.86 -6.11,44.79 -0.37,2.74 -2.89,4.65 -5.62,4.28 -2.74,-0.37 -4.66,-2.89 -4.28,-5.63"
         style="fill:#1d2a30;fill-opacity:1;fill-rule:nonzero;stroke:none"
         id="path54" /><path
         d="m 3396.29,2896.24 c 1.43,-10.42 2.84,-20.84 4.27,-31.26 0.37,-2.74 2.89,-4.65 5.63,-4.28 2.73,0.38 4.65,2.9 4.28,5.64 -1.43,10.41 -2.85,20.83 -4.27,31.26 -0.38,2.73 -2.9,4.65 -5.63,4.27 -2.74,-0.37 -4.65,-2.89 -4.28,-5.63"
         style="fill:#1d2a30;fill-opacity:1;fill-rule:nonzero;stroke:none"
         id="path56" /><path
         d="m 3898.27,3023.09 h -371.26 c -13.37,0.01 -25.42,5.41 -34.19,14.16 -8.75,8.77 -14.15,20.82 -14.15,34.18 0,13.37 5.4,25.42 14.15,34.18 8.77,8.76 20.82,14.16 34.19,14.16 h 371.26 c 2.77,0 5,2.24 5,5 0,2.76 -2.23,5 -5,5 h -371.26 c -32.23,0 -58.34,-26.11 -58.34,-58.34 0,-32.22 26.11,-58.33 58.34,-58.34 h 371.26 c 2.77,0 5,2.24 5,5 0,2.77 -2.23,5 -5,5"
         style="fill:#1d2a30;fill-opacity:1;fill-rule:nonzero;stroke:none"
         id="path58" /><path
         d="m 4038.27,3023.09 h -271.26 c -13.37,0.01 -25.42,5.41 -34.19,14.16 -8.75,8.77 -14.15,20.82 -14.15,34.18 0,13.37 5.4,25.42 14.15,34.18 8.77,8.76 20.82,14.16 34.19,14.16 h 191.26 c 2.77,0 5,2.24 5,5 0,2.76 -2.23,5 -5,5 h -191.26 c -32.23,0 -58.34,-26.11 -58.34,-58.34 0,-32.22 26.11,-58.33 58.34,-58.34 h 271.26 c 2.77,0 5,2.24 5,5 0,2.77 -2.23,5 -5,5"
         style="fill:#1d2a30;fill-opacity:1;fill-rule:nonzero;stroke:none"
         id="path60" /><path
         d="m 3766.19,3090.71 h 171.4 c 2.76,0 5,2.23 5,5 0,2.76 -2.24,5 -5,5 h -171.4 c -2.76,0 -5,-2.24 -5,-5 0,-2.77 2.24,-5 5,-5"
         style="fill:#1d2a30;fill-opacity:1;fill-rule:nonzero;stroke:none"
         id="path62" /><path
         d="m 3985.09,3076.43 h -151.47 c -2.76,0 -5,-2.23 -5,-5 0,-2.76 2.24,-5 5,-5 h 151.47 c 2.76,0 5,2.24 5,5 0,2.77 -2.24,5 -5,5"
         style="fill:#1d2a30;fill-opacity:1;fill-rule:nonzero;stroke:none"
         id="path64" /><path
         d="m 3792.56,3038.2 h 145.03 c 2.76,0 5,2.24 5,5 0,2.76 -2.24,5 -5,5 h -145.03 c -2.76,0 -5,-2.24 -5,-5 0,-2.76 2.24,-5 5,-5"
         style="fill:#1d2a30;fill-opacity:1;fill-rule:nonzero;stroke:none"
         id="path66" /><path
         d="m 1445.23,370.582 c -38.7,14.098 -76.6,29.5 -113.6,46.098 -171.09,76.8 -328.79,178.5 -471.396,299.199 l -0.203,0.203 h 690.199 c 0,-0.031 0,-0.062 0,-0.094 0.03,-2.746 2.26,-4.949 5,-4.949 0.01,0 0.03,0 0.05,0 229.04,2.473 456.04,3.699 683,3.699 55.88,0 111.74,-0.066 167.64,-0.218 5.82,-31.571 11.58,-63.321 17.14,-95.129 L 1445.23,370.582"
         style="fill:#a5c8ae;fill-opacity:1;fill-rule:nonzero;stroke:none"
         id="path68" /><path
         d="m 1597.03,1126.98 v -31.1 c 0,-8.5 -6.89,-15.4 -15.4,-15.4 H 977.035 c -30.504,0 -52.699,28.9 -44.801,58.4 l 70.606,265.1 98.29,369.2 h 307.4 l 10.6,-165.6 13.91,-215 11.49,-179.3 c 2.51,-39.9 35.61,-70.9 75.5,-70.9 h 61.6 c 8.51,0 15.4,-6.9 15.4,-15.4"
         style="fill:#73cd91;fill-opacity:1;fill-rule:nonzero;stroke:none"
         id="path70" /><g
         id="g72"><g
           id="g74"
           clip-path="url(#clipPath78)"><path
             d="m 1045.84,1142.38 h -55.406 l 61.896,255.6 v 0 c 64,-7.12 140.61,-12.7 223.13,-12.7 49.24,0 100.6,1.99 152.6,6.83 l 11.48,-179.15 c 0.25,-3.9 0.77,-7.72 1.54,-11.45 -27.26,13.08 -68.83,41.47 -106.3,67.18 -19.97,13.68 -38.84,26.63 -54.08,36.22 -7.62,4.8 -14.33,8.76 -19.91,11.59 -2.79,1.41 -5.3,2.55 -7.59,3.37 -2.31,0.81 -4.33,1.37 -6.57,1.4 l -0.75,-0.03 h 0.03 c -3.75,-0.29 -7.68,-1.61 -12.24,-3.55 -15.75,-6.8 -38.72,-21.95 -58.12,-35.52 -19.35,-13.55 -34.9,-25.47 -34.94,-25.49 l -0.8,-0.77 -93.09,-111.99 -0.8,-1.34 -0.08,-0.2"
             style="fill:#4cbb7a;fill-opacity:1;fill-rule:nonzero;stroke:none"
             id="path80" /><path
             d="m 1052.33,1397.98 c -15.63,1.61 -30.46,3.45 -44.5,5.33 l 32.59,122.41 c 14.33,-0.56 28.49,-1.1 42.44,-1.61 l -30.53,-126.13"
             style="fill:#4cbb7a;fill-opacity:1;fill-rule:nonzero;stroke:none"
             id="path82" /><path
             d="m 1275.46,1385.28 c -82.52,0 -159.13,5.58 -223.13,12.7 v 0 l 30.53,126.13 c 115.95,-4.29 218.03,-7.04 288.78,-7.05 5.93,0 12.1,0.02 18.46,0.06 6.36,-0.04 12.54,-0.06 18.47,-0.06 3.72,0 7.51,0.01 11.4,0.03 l 8.08,-124.83 0.01,-0.15 c -52,-4.84 -103.36,-6.83 -152.6,-6.83"
             style="fill:#3b9163;fill-opacity:1;fill-rule:nonzero;stroke:none"
             id="path84" /></g></g><path
         d="m 1597.03,1126.98 h -5 v -31.1 c -0.01,-5.74 -4.66,-10.39 -10.4,-10.4 H 977.035 c -11.765,0.01 -22.055,4.78 -29.496,12.34 -7.43,7.57 -11.914,17.9 -11.914,28.94 0,3.55 0.461,7.17 1.438,10.83 l 70.607,265.1 97.3,365.49 h 298.87 l 10.3,-160.92 13.91,-215 11.49,-179.3 c 2.67,-42.53 37.96,-75.58 80.49,-75.58 h 61.6 c 5.74,-0.01 10.39,-4.66 10.4,-10.4 h 5 5.01 c -0.01,11.27 -9.14,20.39 -20.41,20.4 h -61.6 c -37.26,-0.01 -68.17,28.95 -70.51,66.22 l -11.49,179.3 -13.91,215 -10.6,165.6 c -0.17,2.63 -2.35,4.68 -4.99,4.68 h -307.4 c -2.26,0 -4.25,-1.53 -4.83,-3.72 l -98.296,-369.2 -70.602,-265.09 c -1.203,-4.49 -1.777,-9 -1.777,-13.41 0.004,-13.77 5.578,-26.58 14.781,-35.95 9.188,-9.37 22.106,-15.33 36.629,-15.33 h 604.595 c 11.27,0.01 20.4,9.13 20.41,20.4 v 31.1 h -5.01"
         style="fill:#1d2a30;fill-opacity:1;fill-rule:nonzero;stroke:none"
         id="path86" /><path
         d="m 2635.84,1644.32 c 0,-37.55 -29.26,-68.56 -66.76,-70.68 -221.25,-12.54 -931.57,-51.58 -1197.44,-51.58 -265.87,0 -976.191,39.04 -1197.449,51.58 -37.484,2.12 -66.75,33.13 -66.75,70.68 v 1728.46 c 0,39.1 31.7,70.8 70.805,70.8 H 2565.03 c 39.11,0 70.81,-31.7 70.81,-70.8 V 1644.32"
         style="fill:#73cd91;fill-opacity:1;fill-rule:nonzero;stroke:none"
         id="path88" /><path
         d="m 2635.84,1644.32 h -5 c 0,-34.9 -27.2,-63.72 -62.04,-65.69 -221.19,-12.54 -931.62,-51.57 -1197.16,-51.57 -265.54,0 -975.968,39.03 -1197.163,51.57 v 0 c -34.836,1.97 -62.036,30.79 -62.036,65.69 v 1728.46 c 0,18.18 7.356,34.6 19.274,46.53 11.922,11.92 28.344,19.27 46.531,19.27 H 2565.03 c 18.19,0 34.61,-7.35 46.54,-19.27 11.92,-11.93 19.27,-28.34 19.27,-46.53 V 1644.32 h 5 5 v 1728.46 c 0,41.87 -33.93,75.8 -75.81,75.8 H 178.246 c -41.871,0 -75.805,-33.93 -75.805,-75.8 V 1644.32 c 0,-40.2 31.332,-73.41 71.469,-75.68 v 0 c 221.313,-12.53 931.52,-51.57 1197.73,-51.58 266.21,0.01 976.42,39.05 1197.73,51.58 40.14,2.27 71.47,35.48 71.47,75.68 h -5"
         style="fill:#1d2a30;fill-opacity:1;fill-rule:nonzero;stroke:none"
         id="path90" /><path
         d="m 2672.77,1644.32 c 0,-37.55 -29.27,-68.56 -66.75,-70.68 -221.26,-12.54 -931.58,-51.58 -1197.45,-51.58 -265.88,0 -976.195,39.04 -1197.449,51.58 -37.488,2.12 -66.754,33.13 -66.754,70.68 v 1728.46 c 0,39.1 31.699,70.8 70.805,70.8 H 2601.97 c 39.1,0 70.8,-31.7 70.8,-70.8 V 1644.32"
         style="fill:#73cd91;fill-opacity:1;fill-rule:nonzero;stroke:none"
         id="path92" /><path
         d="m 2672.77,1644.32 h -5 c 0,-34.9 -27.2,-63.72 -62.03,-65.69 -221.2,-12.54 -931.63,-51.57 -1197.17,-51.57 -265.54,0 -975.968,39.03 -1197.168,51.57 -34.836,1.97 -62.035,30.79 -62.035,65.69 v 1728.46 c 0.004,18.18 7.36,34.6 19.274,46.53 11.925,11.92 28.343,19.27 46.531,19.27 H 2601.97 c 18.18,0 34.6,-7.35 46.52,-19.27 11.92,-11.93 19.27,-28.34 19.28,-46.53 V 1644.32 h 5 5 v 1728.46 c -0.01,41.87 -33.94,75.8 -75.8,75.8 h -2386.802 0.004 c -41.867,0 -75.801,-33.93 -75.805,-75.8 V 1644.32 c 0,-40.2 31.332,-73.41 71.473,-75.68 221.312,-12.53 931.52,-51.57 1197.73,-51.58 266.21,0.01 976.41,39.05 1197.73,51.58 40.13,2.28 71.47,35.48 71.47,75.68 h -5"
         style="fill:#1d2a30;fill-opacity:1;fill-rule:nonzero;stroke:none"
         id="path94" /><path
         d="m 211.082,1666.08 h 2394.98 V 3380.35 H 211.082 Z"
         style="fill:#1d2a30;fill-opacity:1;fill-rule:nonzero;stroke:none"
         id="path96" /><path
         d="m 2606.06,1666.08 v 5 H 216.082 V 3375.35 H 2601.06 V 1666.08 h 5 v 5 -5 h 5 v 1714.27 c 0,1.32 -0.54,2.6 -1.47,3.54 -0.93,0.93 -2.22,1.46 -3.53,1.46 H 211.082 c -1.316,0 -2.605,-0.53 -3.535,-1.46 -0.93,-0.94 -1.465,-2.22 -1.465,-3.54 V 1666.08 c 0,-1.32 0.535,-2.61 1.465,-3.54 0.93,-0.93 2.219,-1.46 3.535,-1.46 H 2606.06 c 1.31,0 2.6,0.53 3.53,1.46 0.93,0.93 1.47,2.22 1.47,3.54 h -5"
         style="fill:#1d2a30;fill-opacity:1;fill-rule:nonzero;stroke:none"
         id="path98" /><path
         d="M 2277.88,1671.08 H 216.082 V 3375.35 H 2601.06 v -178.92 h -107.01 v -352.06 c -79.18,-29.4 -121.39,-84.3 -131.97,-137.28 -9.16,-45.93 2.47,-104.75 56.11,-149.75 -2.77,-14.85 -4.29,-26.96 -4.31,-34.87 0.01,-2.68 0.15,-4.88 0.66,-6.93 l 0.01,-0.01 c 5.3,-20.49 7.25,-40.36 7.25,-59.6 0.06,-53.24 -15.13,-101.55 -15.22,-144.24 0,-8.42 0.61,-16.63 2.09,-24.61 19.57,-105.31 29.64,-171.63 41.58,-213.32 6,-20.84 12.45,-35.67 21.32,-46.16 6.22,-7.4 13.73,-12.37 22.48,-15.39 v -197.25 c -2.77,-1.75 -5.5,-3.52 -8.19,-5.32 v 0 c -1.03,-0.68 -2.05,-1.37 -3.06,-2.06 -86.89,-21.55 -151.85,-74.08 -204.92,-136.5 M 948.461,3098.65 c -130.367,0 -236.043,-105.68 -236.043,-236.05 0,-130.36 105.676,-236.04 236.043,-236.04 130.359,0 236.039,105.68 236.039,236.04 0,130.37 -105.68,236.05 -236.039,236.05"
         style="fill:#45555c;fill-opacity:1;fill-rule:nonzero;stroke:none"
         id="path100" /><path
         d="M 2273.68,1666.08 H 211.082 V 3380.35 H 2606.06 v -183.92 h -5 v 178.92 H 216.082 V 1671.08 H 2277.88 c -1.4,-1.66 -2.81,-3.33 -4.2,-5"
         style="fill:#45555c;fill-opacity:1;fill-rule:nonzero;stroke:none"
         id="path102" /><path
         d="M 2606.06,3191.43 H 211.082 v 188.92 H 2606.06 v -188.92"
         style="fill:#ffffff;fill-opacity:1;fill-rule:nonzero;stroke:none"
         id="path104" /><path
         d="m 2606.06,3191.43 v 5 H 216.082 v 178.92 H 2601.06 v -183.92 h 5 v 5 -5 h 5 v 188.92 c 0,1.32 -0.54,2.6 -1.47,3.54 -0.93,0.93 -2.22,1.46 -3.53,1.46 H 211.082 c -1.316,0 -2.605,-0.53 -3.535,-1.46 -0.93,-0.94 -1.465,-2.22 -1.465,-3.54 v -188.92 c 0,-1.31 0.535,-2.6 1.465,-3.53 0.93,-0.93 2.219,-1.47 3.535,-1.47 H 2606.06 c 1.31,0 2.6,0.54 3.53,1.47 0.93,0.93 1.47,2.22 1.47,3.53 h -5"
         style="fill:#1d2a30;fill-opacity:1;fill-rule:nonzero;stroke:none"
         id="path106" /><path
         d="M 211.082,1666.08 H 473.555 V 3191.43 H 211.082 V 1666.08"
         style="fill:#c0bfbd;fill-opacity:1;fill-rule:nonzero;stroke:none"
         id="path108" /><path
         d="m 211.082,1666.08 v -5 H 478.555 V 3196.43 H 206.082 V 1661.08 h 5 v 5 h 5 V 3186.43 H 468.555 V 1671.08 H 211.082 v -5 h 5 -5"
         style="fill:#1d2a30;fill-opacity:1;fill-rule:nonzero;stroke:none"
         id="path110" /><path
         d="M 1444.07,3191.43 V 1666.08 c 0,-2.76 2.23,-5 5,-5 2.76,0 5,2.24 5,5 v 1525.35 c 0,2.77 -2.24,5 -5,5 -2.77,0 -5,-2.23 -5,-5"
         style="fill:#ffffff;fill-opacity:1;fill-rule:nonzero;stroke:none"
         id="path112" /><path
         d="M 473.555,2517.6 H 2606.06 c 2.76,0 5,2.24 5,5 0,2.76 -2.24,5 -5,5 H 473.555 c -2.762,0 -5,-2.24 -5,-5 0,-2.76 2.238,-5 5,-5"
         style="fill:#ffffff;fill-opacity:1;fill-rule:nonzero;stroke:none"
         id="path114" /><path
         d="m 2576.68,3320.86 c 0,-14.48 -11.73,-26.21 -26.21,-26.21 -14.47,0 -26.2,11.73 -26.2,26.21 0,14.47 11.73,26.2 26.2,26.2 14.48,0 26.21,-11.73 26.21,-26.2"
         style="fill:#c0bfbd;fill-opacity:1;fill-rule:nonzero;stroke:none"
         id="path116" /><path
         d="m 2576.68,3320.86 h -5 c -0.02,-11.72 -9.49,-21.19 -21.21,-21.21 -11.71,0.02 -21.18,9.49 -21.2,21.21 0.02,11.71 9.49,21.18 21.2,21.2 11.72,-0.02 21.19,-9.49 21.21,-21.2 h 5 5 c 0,17.23 -13.96,31.2 -31.21,31.2 -17.23,0 -31.2,-13.97 -31.2,-31.2 0,-17.24 13.97,-31.21 31.2,-31.21 17.25,0 31.21,13.97 31.21,31.21 h -5"
         style="fill:#1d2a30;fill-opacity:1;fill-rule:nonzero;stroke:none"
         id="path118" /><path
         d="m 2475.65,3320.86 c 0,-14.48 -11.74,-26.21 -26.21,-26.21 -14.49,0 -26.21,11.73 -26.21,26.21 0,14.47 11.72,26.2 26.21,26.2 14.47,0 26.21,-11.73 26.21,-26.2"
         style="fill:#c0bfbd;fill-opacity:1;fill-rule:nonzero;stroke:none"
         id="path120" /><path
         d="m 2475.65,3320.86 h -5 c -0.02,-11.72 -9.5,-21.19 -21.21,-21.21 -11.72,0.02 -21.19,9.49 -21.21,21.21 0.02,11.71 9.49,21.18 21.21,21.2 11.71,-0.02 21.19,-9.49 21.21,-21.2 h 5 5 c -0.01,17.24 -13.98,31.2 -31.21,31.2 -17.25,0 -31.21,-13.97 -31.21,-31.2 0,-17.24 13.96,-31.21 31.21,-31.21 17.23,0 31.2,13.97 31.21,31.21 h -5"
         style="fill:#1d2a30;fill-opacity:1;fill-rule:nonzero;stroke:none"
         id="path122" /><path
         d="m 2374.6,3320.86 c 0,-14.48 -11.74,-26.21 -26.21,-26.21 -14.47,0 -26.21,11.73 -26.21,26.21 0,14.47 11.74,26.2 26.21,26.2 14.47,0 26.21,-11.73 26.21,-26.2"
         style="fill:#c0bfbd;fill-opacity:1;fill-rule:nonzero;stroke:none"
         id="path124" /><path
         d="m 2374.6,3320.86 h -5 c -0.02,-11.72 -9.5,-21.19 -21.21,-21.21 -11.71,0.02 -21.19,9.49 -21.21,21.21 0.02,11.71 9.5,21.18 21.21,21.2 11.71,-0.02 21.19,-9.49 21.21,-21.2 h 5 5 c 0,17.24 -13.97,31.2 -31.21,31.2 -17.23,0 -31.2,-13.96 -31.21,-31.2 0,-17.24 13.98,-31.21 31.21,-31.21 17.24,0 31.21,13.97 31.21,31.21 h -5"
         style="fill:#1d2a30;fill-opacity:1;fill-rule:nonzero;stroke:none"
         id="path126" /><path
         d="M 430.672,3053.98 H 253.969 v 71.29 h 176.703 v -71.29"
         style="fill:#ffffff;fill-opacity:1;fill-rule:nonzero;stroke:none"
         id="path128" /><path
         d="m 430.672,3053.98 v 5 H 258.969 v 61.29 h 166.703 v -66.29 h 5 v 5 -5 h 5 v 71.29 c 0,1.31 -0.531,2.6 -1.465,3.53 -0.93,0.93 -2.219,1.47 -3.535,1.47 H 253.969 c -1.317,0 -2.606,-0.54 -3.535,-1.47 -0.93,-0.93 -1.465,-2.22 -1.465,-3.53 v -71.29 c 0,-1.31 0.535,-2.6 1.465,-3.53 0.929,-0.93 2.218,-1.47 3.535,-1.47 h 176.703 c 1.316,0 2.605,0.54 3.535,1.47 0.934,0.93 1.465,2.22 1.465,3.53 h -5"
         style="fill:#1d2a30;fill-opacity:1;fill-rule:nonzero;stroke:none"
         id="path130" /><path
         d="M 430.672,2961.32 H 253.969 v 71.28 h 176.703 v -71.28"
         style="fill:#ffffff;fill-opacity:1;fill-rule:nonzero;stroke:none"
         id="path132" /><path
         d="m 430.672,2961.32 v 5 H 258.969 v 61.28 h 166.703 v -66.28 h 5 v 5 -5 h 5 v 71.28 c 0,1.31 -0.531,2.6 -1.465,3.53 -0.93,0.93 -2.219,1.47 -3.535,1.47 H 253.969 c -1.317,0 -2.606,-0.54 -3.535,-1.47 -0.93,-0.93 -1.465,-2.22 -1.465,-3.53 v -71.28 c 0,-1.32 0.535,-2.61 1.465,-3.54 0.929,-0.93 2.218,-1.46 3.535,-1.46 h 176.703 c 1.316,0 2.605,0.53 3.535,1.46 0.934,0.93 1.465,2.22 1.465,3.54 h -5"
         style="fill:#1d2a30;fill-opacity:1;fill-rule:nonzero;stroke:none"
         id="path134" /><path
         d="M 430.672,2868.65 H 253.969 v 71.28 h 176.703 v -71.28"
         style="fill:#ffffff;fill-opacity:1;fill-rule:nonzero;stroke:none"
         id="path136" /><path
         d="m 430.672,2868.65 v 5 H 258.969 v 61.28 h 166.703 v -66.28 h 5 v 5 -5 h 5 v 71.28 c 0,1.32 -0.531,2.6 -1.465,3.54 -0.93,0.93 -2.219,1.46 -3.535,1.46 H 253.969 c -1.317,0 -2.606,-0.53 -3.535,-1.46 -0.93,-0.94 -1.465,-2.22 -1.465,-3.54 v -71.28 c 0,-1.32 0.535,-2.6 1.465,-3.53 0.929,-0.94 2.218,-1.47 3.535,-1.47 h 176.703 c 1.316,0 2.605,0.53 3.535,1.47 0.934,0.93 1.465,2.21 1.465,3.53 h -5"
         style="fill:#1d2a30;fill-opacity:1;fill-rule:nonzero;stroke:none"
         id="path138" /><path
         d="M 430.672,2775.98 H 253.969 v 71.28 h 176.703 v -71.28"
         style="fill:#ffffff;fill-opacity:1;fill-rule:nonzero;stroke:none"
         id="path140" /><path
         d="m 430.672,2775.98 v 5 H 258.969 v 61.28 h 166.703 v -66.28 h 5 v 5 -5 h 5 v 71.28 c 0,1.32 -0.531,2.61 -1.465,3.54 -0.93,0.93 -2.219,1.46 -3.535,1.46 H 253.969 c -1.317,0 -2.606,-0.53 -3.535,-1.46 -0.93,-0.93 -1.465,-2.22 -1.465,-3.54 v -71.28 c 0,-1.32 0.535,-2.6 1.465,-3.54 0.929,-0.93 2.218,-1.46 3.535,-1.46 h 176.703 c 1.316,0 2.605,0.53 3.535,1.46 0.934,0.94 1.465,2.22 1.465,3.54 h -5"
         style="fill:#1d2a30;fill-opacity:1;fill-rule:nonzero;stroke:none"
         id="path142" /><path
         d="M 430.672,2603.07 H 253.969 v 71.28 h 176.703 v -71.28"
         style="fill:#ffffff;fill-opacity:1;fill-rule:nonzero;stroke:none"
         id="path144" /><path
         d="m 430.672,2603.07 v 5 H 258.969 v 61.28 h 166.703 v -66.28 h 5 v 5 -5 h 5 v 71.28 c 0,1.32 -0.531,2.6 -1.465,3.53 -0.93,0.94 -2.219,1.47 -3.535,1.47 H 253.969 c -1.317,0 -2.606,-0.53 -3.535,-1.47 -0.93,-0.93 -1.465,-2.21 -1.465,-3.53 v -71.28 c 0,-1.32 0.535,-2.6 1.465,-3.54 0.929,-0.93 2.218,-1.46 3.535,-1.46 h 176.703 c 1.316,0 2.605,0.53 3.535,1.46 0.934,0.94 1.465,2.22 1.465,3.54 h -5"
         style="fill:#1d2a30;fill-opacity:1;fill-rule:nonzero;stroke:none"
         id="path146" /><path
         d="M 430.672,2513.4 H 253.969 v 71.28 h 176.703 v -71.28"
         style="fill:#ffffff;fill-opacity:1;fill-rule:nonzero;stroke:none"
         id="path148" /><path
         d="m 430.672,2513.4 v 5 H 258.969 v 61.28 h 166.703 v -66.28 h 5 v 5 -5 h 5 v 71.28 c 0,1.32 -0.531,2.61 -1.465,3.54 -0.93,0.93 -2.219,1.46 -3.535,1.46 H 253.969 c -1.317,0 -2.606,-0.53 -3.535,-1.46 -0.93,-0.93 -1.465,-2.22 -1.465,-3.54 v -71.28 c 0,-1.32 0.535,-2.61 1.465,-3.54 0.929,-0.93 2.218,-1.46 3.535,-1.46 h 176.703 c 1.316,0 2.605,0.53 3.535,1.46 0.934,0.93 1.465,2.22 1.465,3.54 h -5"
         style="fill:#1d2a30;fill-opacity:1;fill-rule:nonzero;stroke:none"
         id="path150" /><path
         d="M 430.672,2423.73 H 253.969 v 71.28 h 176.703 v -71.28"
         style="fill:#ffffff;fill-opacity:1;fill-rule:nonzero;stroke:none"
         id="path152" /><path
         d="m 430.672,2423.73 v 5 H 258.969 v 61.28 h 166.703 v -66.28 h 5 v 5 -5 h 5 v 71.28 c 0,1.31 -0.531,2.6 -1.465,3.53 -0.93,0.93 -2.219,1.47 -3.535,1.47 H 253.969 c -1.317,0 -2.606,-0.54 -3.535,-1.47 -0.93,-0.93 -1.465,-2.22 -1.465,-3.53 v -71.28 c 0,-1.32 0.535,-2.61 1.465,-3.54 0.929,-0.93 2.218,-1.46 3.535,-1.46 h 176.703 c 1.316,0 2.605,0.53 3.535,1.46 0.934,0.93 1.465,2.22 1.465,3.54 h -5"
         style="fill:#1d2a30;fill-opacity:1;fill-rule:nonzero;stroke:none"
         id="path154" /><path
         d="M 430.672,2334.06 H 253.969 v 71.28 h 176.703 v -71.28"
         style="fill:#ffffff;fill-opacity:1;fill-rule:nonzero;stroke:none"
         id="path156" /><path
         d="m 430.672,2334.06 v 5 H 258.969 v 61.28 h 166.703 v -66.28 h 5 v 5 -5 h 5 v 71.28 c 0,1.32 -0.531,2.6 -1.465,3.54 -0.93,0.93 -2.219,1.46 -3.535,1.46 H 253.969 c -1.317,0 -2.606,-0.53 -3.535,-1.46 -0.93,-0.94 -1.465,-2.22 -1.465,-3.54 v -71.28 c 0,-1.32 0.535,-2.61 1.465,-3.54 0.929,-0.93 2.218,-1.46 3.535,-1.46 h 176.703 c 1.316,0 2.605,0.53 3.535,1.46 0.934,0.93 1.465,2.22 1.465,3.54 h -5"
         style="fill:#1d2a30;fill-opacity:1;fill-rule:nonzero;stroke:none"
         id="path158" /><path
         d="M 430.672,2244.39 H 253.969 v 71.28 h 176.703 v -71.28"
         style="fill:#ffffff;fill-opacity:1;fill-rule:nonzero;stroke:none"
         id="path160" /><path
         d="m 430.672,2244.39 v 5 H 258.969 v 61.28 h 166.703 v -66.28 h 5 v 5 -5 h 5 v 71.28 c 0,1.31 -0.531,2.6 -1.465,3.53 -0.93,0.93 -2.219,1.47 -3.535,1.47 H 253.969 c -1.317,0 -2.606,-0.54 -3.535,-1.47 -0.93,-0.93 -1.465,-2.22 -1.465,-3.53 v -71.28 c 0,-1.32 0.535,-2.61 1.465,-3.54 0.929,-0.93 2.218,-1.46 3.535,-1.46 h 176.703 c 1.316,0 2.605,0.53 3.535,1.46 0.934,0.93 1.465,2.22 1.465,3.54 h -5"
         style="fill:#1d2a30;fill-opacity:1;fill-rule:nonzero;stroke:none"
         id="path162" /><path
         d="m 325.246,2071.15 h -71.277 v 71.28 h 71.277 v -71.28"
         style="fill:#ffffff;fill-opacity:1;fill-rule:nonzero;stroke:none"
         id="path164" /><path
         d="m 325.246,2071.15 v 5 h -66.277 v 61.28 h 61.277 v -66.28 h 5 v 5 -5 h 5 v 71.28 c 0,1.31 -0.531,2.6 -1.465,3.53 -0.929,0.93 -2.218,1.47 -3.535,1.47 h -71.277 c -1.317,0 -2.606,-0.54 -3.535,-1.47 -0.93,-0.93 -1.465,-2.22 -1.465,-3.53 v -71.28 c 0,-1.32 0.535,-2.61 1.465,-3.54 0.929,-0.93 2.218,-1.46 3.535,-1.46 h 71.277 c 1.317,0 2.606,0.53 3.535,1.46 0.934,0.93 1.465,2.22 1.465,3.54 h -5"
         style="fill:#1d2a30;fill-opacity:1;fill-rule:nonzero;stroke:none"
         id="path166" /><path
         d="m 430.672,2071.15 h -71.285 v 71.28 h 71.285 v -71.28"
         style="fill:#ffffff;fill-opacity:1;fill-rule:nonzero;stroke:none"
         id="path168" /><path
         d="m 430.672,2071.15 v 5 h -66.285 v 61.28 h 61.285 v -66.28 h 5 v 5 -5 h 5 v 71.28 c 0,1.31 -0.531,2.6 -1.465,3.53 -0.93,0.93 -2.219,1.47 -3.535,1.47 h -71.285 c -1.317,0 -2.602,-0.54 -3.535,-1.47 -0.93,-0.93 -1.465,-2.22 -1.465,-3.53 v -71.28 c 0,-1.32 0.535,-2.61 1.465,-3.54 0.933,-0.93 2.218,-1.46 3.535,-1.46 h 71.285 c 1.316,0 2.605,0.53 3.535,1.46 0.934,0.93 1.465,2.22 1.465,3.54 h -5"
         style="fill:#1d2a30;fill-opacity:1;fill-rule:nonzero;stroke:none"
         id="path170" /><path
         d="m 325.246,1964.83 h -71.277 v 71.28 h 71.277 v -71.28"
         style="fill:#ffffff;fill-opacity:1;fill-rule:nonzero;stroke:none"
         id="path172" /><path
         d="m 325.246,1964.83 v 5 h -66.277 v 61.28 h 61.277 v -66.28 h 5 v 5 -5 h 5 v 71.28 c 0,1.31 -0.531,2.6 -1.465,3.53 -0.929,0.93 -2.218,1.47 -3.535,1.47 h -71.277 c -1.317,0 -2.606,-0.54 -3.535,-1.47 -0.93,-0.93 -1.465,-2.22 -1.465,-3.53 v -71.28 c 0,-1.32 0.535,-2.61 1.465,-3.54 0.929,-0.93 2.218,-1.46 3.535,-1.46 h 71.277 c 1.317,0 2.606,0.53 3.535,1.46 0.934,0.93 1.465,2.22 1.465,3.54 h -5"
         style="fill:#1d2a30;fill-opacity:1;fill-rule:nonzero;stroke:none"
         id="path174" /><path
         d="m 430.672,1964.83 h -71.285 v 71.28 h 71.285 v -71.28"
         style="fill:#ffffff;fill-opacity:1;fill-rule:nonzero;stroke:none"
         id="path176" /><path
         d="m 430.672,1964.83 v 5 h -66.285 v 61.28 h 61.285 v -66.28 h 5 v 5 -5 h 5 v 71.28 c 0,1.31 -0.531,2.6 -1.465,3.53 -0.93,0.93 -2.219,1.47 -3.535,1.47 h -71.285 c -1.317,0 -2.602,-0.54 -3.535,-1.47 -0.93,-0.93 -1.465,-2.22 -1.465,-3.53 v -71.28 c 0,-1.32 0.535,-2.61 1.465,-3.54 0.933,-0.93 2.218,-1.46 3.535,-1.46 h 71.285 c 1.316,0 2.605,0.53 3.535,1.46 0.934,0.93 1.465,2.22 1.465,3.54 h -5"
         style="fill:#1d2a30;fill-opacity:1;fill-rule:nonzero;stroke:none"
         id="path178" /><path
         d="m 211.082,2716.75 h 262.473 c 2.761,0 5,2.23 5,5 0,2.76 -2.239,5 -5,5 H 211.082 c -2.762,0 -5,-2.24 -5,-5 0,-2.77 2.238,-5 5,-5"
         style="fill:#1d2a30;fill-opacity:1;fill-rule:nonzero;stroke:none"
         id="path180" /><path
         d="m 211.082,2184 h 262.473 c 2.761,0 5,2.24 5,5 0,2.76 -2.239,5 -5,5 H 211.082 c -2.762,0 -5,-2.24 -5,-5 0,-2.76 2.238,-5 5,-5"
         style="fill:#1d2a30;fill-opacity:1;fill-rule:nonzero;stroke:none"
         id="path182" /><path
         d="m 1937.29,3300.75 h 282.2 v 40.22 h -282.2 v -40.22"
         style="fill:#c0bfbd;fill-opacity:1;fill-rule:nonzero;stroke:none"
         id="path184" /><path
         d="m 1937.29,3300.75 v -5 h 287.2 v 50.22 h -292.2 v -50.22 h 5 v 5 h 5 v 35.22 h 272.2 v -30.22 h -277.2 v -5 h 5 -5"
         style="fill:#1d2a30;fill-opacity:1;fill-rule:nonzero;stroke:none"
         id="path186" /><path
         d="m 310.039,3292.82 h -56.07 v 56.07 h 56.07 v -56.07"
         style="fill:#c0bfbd;fill-opacity:1;fill-rule:nonzero;stroke:none"
         id="path188" /><path
         d="m 310.039,3292.82 v 5 h -51.07 v 46.07 h 46.07 v -51.07 h 5 v 5 -5 h 5 v 61.07 h -66.07 v -66.07 h 66.07 v 5 h -5"
         style="fill:#1d2a30;fill-opacity:1;fill-rule:nonzero;stroke:none"
         id="path190" /><path
         d="m 1184.5,2862.6 c 0,-130.36 -105.68,-236.04 -236.039,-236.04 -130.367,0 -236.043,105.68 -236.043,236.04 0,130.37 105.676,236.05 236.043,236.05 130.359,0 236.039,-105.68 236.039,-236.05"
         style="fill:#73cd91;fill-opacity:1;fill-rule:nonzero;stroke:none"
         id="path192" /><path
         d="m 885.602,2780.84 c -76.711,0 -138.899,62.19 -138.899,138.9 0,76.72 62.188,138.91 138.899,138.91 76.711,0 138.898,-62.19 138.898,-138.91 0,-76.71 -62.187,-138.9 -138.898,-138.9"
         style="fill:#bde7c5;fill-opacity:1;fill-rule:nonzero;stroke:none"
         id="path194" /><path
         d="M 2606.06,1726.15 H 211.082 v -60.07 H 2606.06 v 60.07"
         style="fill:#ffffff;fill-opacity:1;fill-rule:nonzero;stroke:none"
         id="path196" /><path
         d="m 2606.06,1726.15 v 5 H 211.082 c -1.316,0 -2.605,-0.54 -3.535,-1.47 -0.93,-0.93 -1.465,-2.22 -1.465,-3.53 v -60.07 c 0,-1.32 0.535,-2.61 1.465,-3.54 0.93,-0.93 2.219,-1.46 3.535,-1.46 H 2606.06 c 1.31,0 2.6,0.53 3.53,1.46 0.93,0.93 1.47,2.22 1.47,3.54 v 60.07 c 0,1.31 -0.54,2.6 -1.47,3.53 -0.93,0.93 -2.22,1.47 -3.53,1.47 v -5 h -5 v -55.07 H 216.082 v 50.07 H 2606.06 v 5 h -5 5"
         style="fill:#1d2a30;fill-opacity:1;fill-rule:nonzero;stroke:none"
         id="path198" /><path
         d="m 2499.05,1726.15 h 107.008 V 3191.43 H 2499.05 Z"
         style="fill:#c0bfbd;fill-opacity:1;fill-rule:nonzero;stroke:none"
         id="path200" /><path
         d="m 2499.05,1726.15 v -5 h 112.01 V 3196.43 H 2494.05 V 1721.15 h 5 v 5 h 5 v 1460.28 h 97.01 V 1731.15 h -102.01 v -5 h 5 -5"
         style="fill:#1d2a30;fill-opacity:1;fill-rule:nonzero;stroke:none"
         id="path202" /><path
         d="m 2499.05,3027.6 h 107.01 c 2.76,0 5,2.23 5,5 0,2.76 -2.24,5 -5,5 h -107.01 c -2.77,0 -5,-2.24 -5,-5 0,-2.77 2.23,-5 5,-5"
         style="fill:#1d2a30;fill-opacity:1;fill-rule:nonzero;stroke:none"
         id="path204" /><path
         d="m 2499.05,2698.29 h 107.01 c 2.76,0 5,2.24 5,5 0,2.76 -2.24,5 -5,5 h -107.01 c -2.76,0 -5,-2.24 -5,-5 0,-2.76 2.24,-5 5,-5"
         style="fill:#1d2a30;fill-opacity:1;fill-rule:nonzero;stroke:none"
         id="path206" /><path
         d="m 2499.05,2368.98 h 107.01 c 2.76,0 5,2.24 5,5 0,2.76 -2.24,5 -5,5 h -107.01 c -2.77,0 -5,-2.24 -5,-5 0,-2.76 2.23,-5 5,-5"
         style="fill:#1d2a30;fill-opacity:1;fill-rule:nonzero;stroke:none"
         id="path208" /><path
         d="m 2198.23,2862.6 h -5 c -0.01,-63.81 -25.86,-121.54 -67.67,-163.37 -41.83,-41.82 -99.56,-67.67 -163.37,-67.67 -63.82,0 -121.55,25.85 -163.38,67.67 -41.82,41.83 -67.67,99.56 -67.67,163.37 0,63.82 25.85,121.55 67.67,163.38 41.83,41.81 99.56,67.66 163.38,67.67 63.81,-0.01 121.54,-25.86 163.37,-67.67 41.81,-41.83 67.66,-99.56 67.67,-163.38 h 5 5 c -0.01,133.13 -107.92,241.04 -241.04,241.05 -133.13,-0.01 -241.05,-107.92 -241.05,-241.05 0,-133.12 107.92,-241.04 241.05,-241.04 133.12,0 241.03,107.92 241.04,241.04 h -5"
         style="fill:#ffffff;fill-opacity:1;fill-rule:nonzero;stroke:none"
         id="path210" /><path
         d="m 1726.14,2857.6 h 472.09 v 10 h -472.09 z"
         style="fill:#ffffff;fill-opacity:1;fill-rule:nonzero;stroke:none"
         id="path212" /><path
         d="m 1957.19,2626.56 h 10 v 472.09 h -10 z"
         style="fill:#ffffff;fill-opacity:1;fill-rule:nonzero;stroke:none"
         id="path214" /><path
         d="m 1791.74,3025.97 333.82,-333.81 7.07,7.07 -333.82,333.82"
         style="fill:#ffffff;fill-opacity:1;fill-rule:nonzero;stroke:none"
         id="path216" /><path
         d="m 2125.56,3033.05 -333.82,-333.82 7.07,-7.07 333.82,333.81"
         style="fill:#ffffff;fill-opacity:1;fill-rule:nonzero;stroke:none"
         id="path218" /><path
         d="m 1742.3,2948.58 435.93,-181.19 3.84,9.24 -435.93,181.18"
         style="fill:#ffffff;fill-opacity:1;fill-rule:nonzero;stroke:none"
         id="path220" /><path
         d="m 2048.16,3082.49 -181.19,-435.93 9.24,-3.84 181.19,435.93"
         style="fill:#ffffff;fill-opacity:1;fill-rule:nonzero;stroke:none"
         id="path222" /><path
         d="m 1867.5,3078.88 180.13,-436.37 9.25,3.82 -180.14,436.37"
         style="fill:#ffffff;fill-opacity:1;fill-rule:nonzero;stroke:none"
         id="path224" /><path
         d="m 2178.47,2957.29 -436.38,-180.13 3.82,-9.24 436.37,180.13"
         style="fill:#ffffff;fill-opacity:1;fill-rule:nonzero;stroke:none"
         id="path226" /><path
         d="m 2120.72,2862.6 h -5 c -0.01,-42.41 -17.18,-80.76 -44.97,-108.56 -27.8,-27.79 -66.15,-44.96 -108.56,-44.96 -42.42,0 -80.77,17.17 -108.56,44.96 -27.79,27.8 -44.97,66.15 -44.97,108.56 0,42.41 17.18,80.76 44.97,108.56 27.79,27.79 66.14,44.97 108.56,44.97 42.41,0 80.76,-17.18 108.56,-44.97 27.79,-27.8 44.96,-66.15 44.97,-108.56 h 5 5 c -0.01,90.32 -73.22,163.53 -163.53,163.53 -90.32,0 -163.53,-73.21 -163.53,-163.53 0,-90.31 73.21,-163.52 163.53,-163.52 90.31,0 163.52,73.21 163.53,163.52 h -5"
         style="fill:#ffffff;fill-opacity:1;fill-rule:nonzero;stroke:none"
         id="path228" /><path
         d="m 2034.58,2862.6 h -5 c 0,-18.62 -7.54,-35.44 -19.74,-47.65 -12.21,-12.2 -29.03,-19.73 -47.65,-19.74 -18.63,0.01 -35.45,7.54 -47.66,19.74 -12.2,12.21 -19.73,29.03 -19.74,47.65 0.01,18.63 7.54,35.44 19.74,47.65 12.21,12.21 29.03,19.74 47.66,19.74 18.62,0 35.44,-7.53 47.65,-19.74 12.2,-12.21 19.74,-29.02 19.74,-47.65 h 5 5 c 0,42.74 -34.65,77.39 -77.39,77.39 -42.75,0 -77.39,-34.65 -77.4,-77.39 0.01,-42.74 34.65,-77.38 77.4,-77.39 42.74,0.01 77.39,34.65 77.39,77.39 h -5"
         style="fill:#ffffff;fill-opacity:1;fill-rule:nonzero;stroke:none"
         id="path230" /><path
         d="m 1184.5,2116.13 h 5 c 0,133.12 -107.91,241.04 -241.039,241.04 -133.129,0 -241.043,-107.92 -241.043,-241.04 0,-133.13 107.914,-241.05 241.043,-241.05 133.129,0 241.039,107.92 241.039,241.05 h -5 -5 c 0,-63.82 -25.85,-121.55 -67.67,-163.38 -41.83,-41.81 -99.55,-67.67 -163.369,-67.67 -63.82,0 -121.547,25.86 -163.375,67.67 -41.816,41.83 -67.668,99.56 -67.668,163.38 0,63.81 25.852,121.54 67.668,163.37 41.828,41.82 99.555,67.67 163.375,67.67 63.819,0 121.539,-25.85 163.369,-67.67 41.82,-41.83 67.67,-99.56 67.67,-163.37 h 5"
         style="fill:#ffffff;fill-opacity:1;fill-rule:nonzero;stroke:none"
         id="path232" /><path
         d="M 712.418,2111.13 H 1184.5 c 2.76,0 5,2.23 5,5 0,2.76 -2.24,5 -5,5 H 712.418 c -2.766,0 -5,-2.24 -5,-5 0,-2.77 2.234,-5 5,-5"
         style="fill:#ffffff;fill-opacity:1;fill-rule:nonzero;stroke:none"
         id="path234" /><path
         d="m 943.461,2352.17 v -472.09 c 0,-2.76 2.238,-5 5,-5 2.762,0 5,2.24 5,5 v 472.09 c 0,2.76 -2.238,5 -5,5 -2.762,0 -5,-2.24 -5,-5"
         style="fill:#ffffff;fill-opacity:1;fill-rule:nonzero;stroke:none"
         id="path236" /><path
         d="m 1028.56,2116.13 h -5 c 0.01,-64.72 -8.93,-123.31 -23.19,-165.3 -7.116,-21 -15.589,-37.82 -24.632,-49.07 -9.101,-11.32 -18.347,-16.7 -27.277,-16.68 -8.934,-0.02 -18.18,5.36 -27.281,16.68 -13.594,16.88 -25.766,46.28 -34.27,83.51 -8.539,37.24 -13.555,82.32 -13.551,130.86 -0.011,64.71 8.93,123.3 23.196,165.3 7.109,20.99 15.582,37.81 24.625,49.06 9.101,11.32 18.347,16.71 27.281,16.68 8.93,0.03 18.176,-5.36 27.277,-16.68 13.594,-16.87 25.772,-46.28 34.272,-83.51 8.54,-37.23 13.56,-82.31 13.55,-130.85 h 5 5 c -0.01,65.64 -9,125.08 -23.72,168.51 -7.39,21.73 -16.176,39.47 -26.301,52.11 -10.062,12.57 -21.891,20.4 -35.078,20.42 -13.191,-0.02 -25.016,-7.85 -35.082,-20.42 -15.156,-18.96 -27.445,-49.41 -36.215,-87.53 -8.734,-38.11 -13.805,-83.86 -13.805,-133.09 0.008,-65.65 8.996,-125.08 23.723,-168.52 7.383,-21.72 16.172,-39.47 26.297,-52.11 10.066,-12.57 21.891,-20.39 35.082,-20.42 13.187,0.03 25.016,7.85 35.078,20.42 15.156,18.96 27.441,49.41 36.221,87.54 8.73,38.11 13.8,83.85 13.8,133.09 h -5"
         style="fill:#ffffff;fill-opacity:1;fill-rule:nonzero;stroke:none"
         id="path238" /><path
         d="m 1101.16,2116.13 h -5 c 0.01,-64.31 -16.9,-122.46 -43.92,-164.2 -27.08,-41.8 -63.834,-66.87 -103.779,-66.85 -39.949,-0.02 -76.703,25.05 -103.777,66.85 -27.02,41.74 -43.938,99.89 -43.922,164.2 -0.016,64.3 16.902,122.45 43.922,164.19 27.074,41.8 63.828,66.87 103.777,66.85 39.945,0.02 76.699,-25.05 103.779,-66.85 27.02,-41.74 43.93,-99.89 43.92,-164.19 h 5 5 c -0.01,66.05 -17.28,125.93 -45.53,169.62 -28.19,43.63 -67.782,71.4 -112.169,71.42 -44.391,-0.02 -83.984,-27.79 -112.176,-71.42 -28.246,-43.69 -45.512,-103.57 -45.523,-169.62 0.011,-66.06 17.277,-125.93 45.523,-169.63 28.192,-43.63 67.785,-71.4 112.176,-71.42 44.387,0.02 83.979,27.79 112.169,71.42 28.25,43.7 45.52,103.57 45.53,169.63 h -5"
         style="fill:#ffffff;fill-opacity:1;fill-rule:nonzero;stroke:none"
         id="path240" /><path
         d="m 1161.07,2116.13 h -5 c 0,-63.96 -23.35,-121.79 -60.99,-163.57 -37.65,-41.78 -89.44,-67.47 -146.619,-67.48 -57.184,0.01 -108.977,25.7 -146.629,67.48 -37.633,41.78 -60.992,99.61 -60.988,163.57 -0.004,63.95 23.355,121.78 60.988,163.56 37.652,41.78 89.441,67.48 146.629,67.48 57.179,0 108.969,-25.7 146.619,-67.48 37.64,-41.78 60.99,-99.6 60.99,-163.56 h 5 5 c 0,66.4 -24.24,126.6 -63.55,170.25 -39.3,43.65 -93.82,70.8 -154.059,70.79 -60.242,0.01 -114.762,-27.14 -154.059,-70.79 -39.32,-43.65 -63.558,-103.85 -63.558,-170.25 0,-66.41 24.238,-126.6 63.558,-170.26 39.297,-43.65 93.817,-70.79 154.059,-70.79 60.239,0 114.759,27.14 154.059,70.79 39.31,43.66 63.55,103.85 63.55,170.26 h -5"
         style="fill:#ffffff;fill-opacity:1;fill-rule:nonzero;stroke:none"
         id="path242" /><path
         d="m 738.68,2219.39 h 419.52 c 2.76,0 5,2.24 5,5 0,2.76 -2.24,5 -5,5 H 738.68 c -2.762,0 -5,-2.24 -5,-5 0,-2.76 2.238,-5 5,-5"
         style="fill:#ffffff;fill-opacity:1;fill-rule:nonzero;stroke:none"
         id="path244" /><path
         d="M 822.406,2310.67 H 1074.5 c 2.76,0 5,2.24 5,5 0,2.76 -2.24,5 -5,5 H 822.406 c -2.761,0 -5,-2.24 -5,-5 0,-2.76 2.239,-5 5,-5"
         style="fill:#ffffff;fill-opacity:1;fill-rule:nonzero;stroke:none"
         id="path246" /><path
         d="m 738.68,2002.86 h 419.52 c 2.76,0 5,2.24 5,5 0,2.77 -2.24,5 -5,5 H 738.68 c -2.762,0 -5,-2.23 -5,-5 0,-2.76 2.238,-5 5,-5"
         style="fill:#ffffff;fill-opacity:1;fill-rule:nonzero;stroke:none"
         id="path248" /><path
         d="M 822.406,1911.59 H 1074.5 c 2.76,0 5,2.23 5,5 0,2.76 -2.24,5 -5,5 H 822.406 c -2.761,0 -5,-2.24 -5,-5 0,-2.77 2.239,-5 5,-5"
         style="fill:#ffffff;fill-opacity:1;fill-rule:nonzero;stroke:none"
         id="path250" /><path
         d="m 2198.23,2116.13 h -5 c -0.01,-63.82 -25.86,-121.55 -67.67,-163.38 -41.83,-41.81 -99.56,-67.67 -163.37,-67.67 -63.82,0 -121.55,25.86 -163.38,67.67 -41.82,41.83 -67.67,99.56 -67.67,163.38 0,63.81 25.85,121.54 67.67,163.37 41.83,41.82 99.56,67.67 163.38,67.67 63.81,0 121.54,-25.85 163.37,-67.67 41.81,-41.83 67.66,-99.56 67.67,-163.37 h 5 5 c -0.01,133.12 -107.92,241.04 -241.04,241.04 -133.13,0 -241.05,-107.92 -241.05,-241.04 0,-133.13 107.92,-241.05 241.05,-241.05 133.12,0 241.03,107.92 241.04,241.05 h -5"
         style="fill:#ffffff;fill-opacity:1;fill-rule:nonzero;stroke:none"
         id="path252" /><path
         d="m 2045.87,2116.13 h -5 c 0.01,-64.7 -9.33,-123.27 -24.22,-165.24 -7.43,-20.98 -16.27,-37.79 -25.72,-49.05 -9.51,-11.31 -19.22,-16.78 -28.74,-16.76 -9.53,-0.02 -19.24,5.45 -28.75,16.76 -14.2,16.89 -26.9,46.27 -35.78,83.48 -8.92,37.22 -14.16,82.28 -14.16,130.81 -0.01,64.69 9.33,123.26 24.22,165.23 7.43,20.98 16.27,37.8 25.72,49.05 9.51,11.31 19.22,16.78 28.75,16.76 9.52,0.02 19.23,-5.45 28.74,-16.76 14.2,-16.88 26.91,-46.26 35.79,-83.47 8.92,-37.22 14.15,-82.29 14.15,-130.81 h 5 5 c -0.01,65.67 -9.4,125.12 -24.8,168.58 -7.71,21.73 -16.9,39.49 -27.48,52.12 -10.51,12.58 -22.82,20.32 -36.4,20.34 -13.59,-0.02 -25.89,-7.76 -36.41,-20.34 -15.83,-18.95 -28.68,-49.43 -37.85,-87.57 -9.13,-38.12 -14.43,-83.89 -14.43,-133.13 0.01,-65.67 9.4,-125.12 24.8,-168.58 7.72,-21.74 16.91,-39.49 27.48,-52.13 10.52,-12.58 22.82,-20.32 36.41,-20.34 13.58,0.02 25.89,7.76 36.4,20.34 15.83,18.95 28.69,49.43 37.85,87.57 9.13,38.12 14.43,83.89 14.43,133.14 h -5"
         style="fill:#ffffff;fill-opacity:1;fill-rule:nonzero;stroke:none"
         id="path254" /><path
         d="m 1962.19,2032.44 v 5 c -64.7,-0.01 -123.27,9.33 -165.24,24.23 -20.98,7.42 -37.79,16.26 -49.05,25.71 -11.31,9.51 -16.78,19.22 -16.76,28.75 -0.02,9.52 5.45,19.23 16.76,28.74 16.88,14.2 46.27,26.9 83.48,35.79 37.22,8.91 82.28,14.15 130.81,14.15 64.69,0.01 123.26,-9.33 165.23,-24.22 20.98,-7.43 37.79,-16.27 49.04,-25.72 11.32,-9.51 16.78,-19.22 16.77,-28.74 0.01,-9.53 -5.45,-19.24 -16.77,-28.75 -16.88,-14.2 -46.26,-26.9 -83.47,-35.78 -37.22,-8.92 -82.28,-14.16 -130.8,-14.16 v -5 -5 c 65.66,0.02 125.12,9.41 168.57,24.8 21.74,7.72 39.49,16.91 52.13,27.48 12.57,10.52 20.32,22.82 20.34,36.41 -0.02,13.58 -7.77,25.89 -20.34,36.4 -18.95,15.83 -49.43,28.69 -87.57,37.85 -38.12,9.13 -83.89,14.43 -133.13,14.43 -65.67,-0.01 -125.12,-9.4 -168.58,-24.8 -21.74,-7.71 -39.5,-16.9 -52.13,-27.48 -12.58,-10.51 -20.32,-22.82 -20.34,-36.4 0.02,-13.59 7.76,-25.89 20.34,-36.41 18.95,-15.83 49.43,-28.68 87.57,-37.85 38.12,-9.13 83.89,-14.42 133.14,-14.43 v 5"
         style="fill:#ffffff;fill-opacity:1;fill-rule:nonzero;stroke:none"
         id="path256" /><path
         d="m 1887.46,2028.91 161.95,161.93 -7.07,7.07 -161.95,-161.93"
         style="fill:#ffffff;fill-opacity:1;fill-rule:nonzero;stroke:none"
         id="path258" /><path
         d="m 1726.14,2111.13 h 472.09 v 10 h -472.09 z"
         style="fill:#ffffff;fill-opacity:1;fill-rule:nonzero;stroke:none"
         id="path260" /><path
         d="m 1957.19,1880.08 h 10 v 472.09 h -10 z"
         style="fill:#ffffff;fill-opacity:1;fill-rule:nonzero;stroke:none"
         id="path262" /><path
         d="M 631.355,1080.5 H 2992.16 c -787.24,0.42 -1575.25,0.45 -2360.805,0.13 v -0.13"
         style="fill:#ffffff;fill-opacity:1;fill-rule:nonzero;stroke:none"
         id="path264" /><path
         d="m 631.355,1080.5 v -5 H 2992.16 c 2.76,0 5,2.24 5,5 0,2.76 -2.23,5 -5,5 -435.17,0.23 -870.57,0.35 -1305.67,0.35 -352.01,0 -703.818,-0.08 -1055.135,-0.22 -2.761,0 -5,-2.24 -5,-5 v -0.13 c 0,-1.31 0.536,-2.6 1.465,-3.53 0.93,-0.94 2.219,-1.47 3.535,-1.47 v 5 h 5 v 0.13 h -5 l 0.004,-5 c 351.317,0.14 703.121,0.22 1055.131,0.22 435.09,0 870.5,-0.12 1305.67,-0.35 1.33,0 2.59,0.52 3.54,1.47 0.94,0.94 1.46,2.19 1.46,3.53 0,1.34 -0.52,2.59 -1.46,3.54 -0.95,0.94 -2.2,1.46 -3.54,1.46 H 631.355 v -5 h 5 -5"
         style="fill:#1d2a30;fill-opacity:1;fill-rule:nonzero;stroke:none"
         id="path266" /><path
         d="m 599.707,1080.62 c -90.812,-0.04 -181.734,-0.07 -272.473,-0.12 h 272.473 v 0.12"
         style="fill:#ffffff;fill-opacity:1;fill-rule:nonzero;stroke:none"
         id="path268" /><path
         d="m 599.707,1080.62 -0.004,5 c -90.808,-0.04 -181.734,-0.07 -272.473,-0.12 -2.757,0 -4.996,-2.24 -4.996,-5 0,-2.76 2.239,-5 5,-5 h 272.473 c 1.316,0 2.602,0.53 3.535,1.47 0.93,0.93 1.465,2.21 1.465,3.53 v 0.12 c 0,1.33 -0.523,2.59 -1.469,3.53 -0.941,0.95 -2.199,1.47 -3.535,1.47 l 0.004,-5 h -5 v -0.12 h 5 v 5 H 327.234 c -1.336,0 -2.589,-0.52 -3.535,-1.46 -0.945,-0.95 -1.465,-2.2 -1.465,-3.54 0,-1.34 0.524,-2.59 1.465,-3.54 0.946,-0.94 2.203,-1.46 3.539,-1.46 90.735,0.05 181.66,0.08 272.469,0.12 v 5 h -5 5"
         style="fill:#1d2a30;fill-opacity:1;fill-rule:nonzero;stroke:none"
         id="path270" /><path
         d="m 183.445,1080.5 c 23.989,0 47.985,0 71.977,0"
         style="fill:#ffffff;fill-opacity:1;fill-rule:nonzero;stroke:none"
         id="path272" /><path
         d="m 183.445,1075.5 c 23.989,0 47.985,0 71.977,0 2.762,0 5,2.24 5,5 0,2.76 -2.238,5 -5,5 -23.992,0 -47.988,0 -71.977,0 -2.761,0 -5,-2.24 -5,-5 0,-2.76 2.239,-5 5,-5"
         style="fill:#1d2a30;fill-opacity:1;fill-rule:nonzero;stroke:none"
         id="path274" /><path
         d="m 857.289,930.191 h 610.551 v 124.739 l -609.09,-7.9 -1.461,-116.839"
         style="fill:#1d2a30;fill-opacity:1;fill-rule:nonzero;stroke:none"
         id="path276" /><path
         d="m 857.289,930.191 v -5 h 610.551 c 1.32,0 2.6,0.528 3.54,1.457 0.93,0.934 1.46,2.223 1.46,3.543 v 124.739 c 0,1.34 -0.54,2.62 -1.49,3.56 -0.95,0.94 -2.24,1.46 -3.57,1.45 l -609.096,-7.92 c -2.715,-0.03 -4.903,-2.22 -4.934,-4.93 l -1.461,-116.84 c -0.016,-1.328 0.504,-2.621 1.441,-3.57 0.942,-0.95 2.223,-1.489 3.559,-1.489 v 5 l 5,-0.062 1.399,111.961 599.152,7.78 V 935.191 H 857.289 v -5 l 5,-0.062 -5,0.062"
         style="fill:#1d2a30;fill-opacity:1;fill-rule:nonzero;stroke:none"
         id="path278" /><path
         d="M 2633.54,930.191 H 1296.55 l -404.976,98.369 -32.824,71.46 h 1149.89 l 624.9,-125.551 v -44.278"
         style="fill:#73cd91;fill-opacity:1;fill-rule:nonzero;stroke:none"
         id="path280" /><path
         d="m 2633.54,930.191 v 5 H 1297.15 l -402.041,97.659 -28.562,62.17 H 2008.14 l 620.4,-124.649 v -40.18 h 5 v 5 -5 h 5 v 44.278 c 0,2.383 -1.68,4.429 -4.02,4.902 l -624.89,125.549 -0.99,0.1 H 858.75 c -1.707,0 -3.289,-0.86 -4.211,-2.3 -0.922,-1.43 -1.047,-3.23 -0.336,-4.78 l 32.828,-71.47 c 0.641,-1.39 1.871,-2.41 3.364,-2.77 l 404.975,-98.368 1.18,-0.141 h 1336.99 c 1.32,0 2.6,0.528 3.53,1.457 0.94,0.934 1.47,2.223 1.47,3.543 h -5"
         style="fill:#1d2a30;fill-opacity:1;fill-rule:nonzero;stroke:none"
         id="path282" /><path
         d="m 1511.36,974.469 h 1122.18 l -624.9,125.551 H 858.75 l 437.8,-125.551 h 162.06 52.75"
         style="fill:#73cd91;fill-opacity:1;fill-rule:nonzero;stroke:none"
         id="path284" /><g
         id="g286"><g
           id="g288"
           clip-path="url(#clipPath292)"><path
             d="m 1475.02,974.469 h -11.41 c 0,2.761 -2.24,5 -5,5 H 1297.25 L 894.32,1095.02 h 132.57 l -7.03,-17.56 c -0.48,-1.19 -0.48,-2.53 0,-3.72 0.15,-0.34 1.48,-3.68 4.72,-7.23 3.17,-3.52 8.67,-7.33 16.24,-7.33 0.02,0 0.04,0 0.07,0 v 0 c 5.35,0 11.39,1.84 18.09,6.1 6.54,4.15 13.81,10.61 22.07,20.26 l 18.37,9.48 h 72.12 c 9.21,-6.6 20.19,-13.95 32.57,-21.32 38.71,-22.98 91.18,-46.15 146.66,-46.19 8.67,0 17.41,0.58 26.18,1.81 7.79,-4.46 45.29,-25.85 98.07,-54.851"
             style="fill:#4cbb7a;fill-opacity:1;fill-rule:nonzero;stroke:none"
             id="path294" /></g></g><path
         d="m 1511.36,969.469 h 1122.18 c 2.56,0 4.72,1.953 4.97,4.5 0.26,2.551 -1.47,4.89 -3.99,5.402 l -624.89,125.549 -0.99,0.1 H 858.75 c -2.492,0 -4.605,-1.84 -4.953,-4.3 -0.348,-2.47 1.18,-4.82 3.574,-5.5 l 437.799,-125.56 1.38,-0.191 h 162.06 c 2.76,0 5,2.242 5,5 0,2.761 -2.24,5 -5,5 H 1297.25 L 894.32,1095.02 H 2008.14 L 2583.27,979.469 H 1511.36 c -2.77,0 -5,-2.239 -5,-5 0,-2.77 2.23,-5 5,-5"
         style="fill:#1d2a30;fill-opacity:1;fill-rule:nonzero;stroke:none"
         id="path296" /><path
         d="m 1291.55,946.801 v -16.61 c 0,-2.761 2.24,-5 5,-5 2.76,0 5,2.239 5,5 v 16.61 c 0,2.758 -2.24,5 -5,5 -2.76,0 -5,-2.242 -5,-5"
         style="fill:#1d2a30;fill-opacity:1;fill-rule:nonzero;stroke:none"
         id="path298" /><path
         d="m 907.109,1048.16 c 2.735,-10.16 4.246,-21.33 4.246,-33.05 0,-46.899 -24.203,-84.919 -54.066,-84.919 -29.859,0 -54.066,38.02 -54.066,84.919 0,46.9 24.207,84.91 54.066,84.91 16.508,0 31.289,-11.62 41.207,-29.93"
         style="fill:#73cd91;fill-opacity:1;fill-rule:nonzero;stroke:none"
         id="path300" /><path
         d="m 902.281,1046.86 c 2.614,-9.72 4.074,-20.46 4.074,-31.75 0.012,-22.59 -5.871,-42.969 -15.05,-57.36 -9.242,-14.469 -21.344,-22.59 -34.016,-22.559 -12.668,-0.031 -24.773,8.09 -34.012,22.559 -9.183,14.391 -15.07,34.77 -15.054,57.36 -0.016,22.59 5.871,42.96 15.054,57.36 9.239,14.46 21.344,22.58 34.012,22.55 7.063,0 13.793,-2.45 20.094,-7.11 6.285,-4.66 12.043,-11.57 16.715,-20.2 1.316,-2.43 4.351,-3.33 6.777,-2.02 2.43,1.32 3.332,4.35 2.016,6.78 -5.243,9.68 -11.832,17.74 -19.547,23.47 -7.696,5.72 -16.61,9.09 -26.055,9.08 -17.191,-0.02 -32.121,-10.91 -42.449,-27.18 -10.387,-16.34 -16.606,-38.42 -16.617,-62.73 0.011,-24.309 6.23,-46.391 16.617,-62.731 10.328,-16.277 25.258,-27.168 42.449,-27.188 17.191,0.02 32.121,10.911 42.449,27.188 10.387,16.34 16.606,38.422 16.617,62.731 0,12.15 -1.566,23.75 -4.417,34.35 -0.719,2.66 -3.461,4.24 -6.129,3.53 -2.668,-0.72 -4.246,-3.47 -3.528,-6.13"
         style="fill:#1d2a30;fill-opacity:1;fill-rule:nonzero;stroke:none"
         id="path302" /><path
         d="m 627.699,835.648 c 765.631,-4.668 1545.631,-4.668 2319.701,0 H 627.699"
         style="fill:#ffffff;fill-opacity:1;fill-rule:nonzero;stroke:none"
         id="path304" /><path
         d="m 627.668,830.648 c 382.832,-2.339 769.242,-3.5 1156.722,-3.5 387.47,0 775.99,1.161 1163.04,3.5 2.76,0.024 4.98,2.274 4.97,5.032 -0.02,2.761 -2.27,4.98 -5.03,4.968 -387.03,-2.339 -775.53,-3.5 -1162.98,-3.5 -387.46,0 -773.85,1.161 -1156.66,3.5 -2.761,0.024 -5.015,-2.207 -5.031,-4.968 -0.015,-2.758 2.207,-5.008 4.969,-5.032"
         style="fill:#1d2a30;fill-opacity:1;fill-rule:nonzero;stroke:none"
         id="path306" /><path
         d="m 442.121,835.648 c 41.215,-4.668 71.215,-4.668 113.465,0"
         style="fill:#ffffff;fill-opacity:1;fill-rule:nonzero;stroke:none"
         id="path308" /><path
         d="m 441.559,830.68 c 20.738,-2.348 38.754,-3.532 56.906,-3.532 18.152,0 36.418,1.184 57.668,3.532 2.746,0.3 4.722,2.769 4.422,5.519 -0.305,2.742 -2.774,4.723 -5.52,4.422 -21,-2.32 -38.859,-3.473 -56.57,-3.473 -17.715,0 -35.309,1.153 -55.781,3.473 -2.743,0.309 -5.219,-1.672 -5.532,-4.41 -0.308,-2.742 1.664,-5.223 4.407,-5.531"
         style="fill:#1d2a30;fill-opacity:1;fill-rule:nonzero;stroke:none"
         id="path310" /><path
         d="m 1555.23,716.039 c 458.1,4.941 908.1,4.941 1365.8,0 h -1365.8"
         style="fill:#ffffff;fill-opacity:1;fill-rule:nonzero;stroke:none"
         id="path312" /><path
         d="m 1555.28,711.039 c 229.04,2.473 456.04,3.699 683,3.699 226.96,0 453.86,-1.226 682.69,-3.699 2.77,-0.027 5.03,2.18 5.06,4.949 0.03,2.762 -2.19,5.024 -4.95,5.051 -228.86,2.473 -455.81,3.699 -682.8,3.699 -226.99,0 -454.04,-1.226 -683.11,-3.699 -2.76,-0.027 -4.97,-2.289 -4.94,-5.051 0.03,-2.769 2.29,-4.976 5.05,-4.949"
         style="fill:#1d2a30;fill-opacity:1;fill-rule:nonzero;stroke:none"
         id="path314" /><path
         d="m 679.266,716.039 c 244.07,4.941 484.064,4.941 721.224,0"
         style="fill:#ffffff;fill-opacity:1;fill-rule:nonzero;stroke:none"
         id="path316" /><path
         d="m 679.367,711.039 c 122,2.473 242.985,3.699 363.103,3.699 120.12,0 239.37,-1.226 357.92,-3.699 2.76,-0.059 5.04,2.133 5.1,4.891 0.06,2.769 -2.13,5.05 -4.89,5.109 -118.62,2.473 -237.94,3.699 -358.13,3.699 -120.189,0 -241.24,-1.226 -363.306,-3.699 -2.762,-0.059 -4.953,-2.34 -4.898,-5.098 0.058,-2.761 2.339,-4.961 5.101,-4.902"
         style="fill:#1d2a30;fill-opacity:1;fill-rule:nonzero;stroke:none"
         id="path318" /><path
         d="m 2644.47,2020.49 c -40.6,-9.46 -82.28,-12.49 -123.64,-8.02 -4.77,0.56 -9.53,1.23 -14.28,1.88 -52.48,7.96 -53.83,62.94 -92.96,273.64 -11.19,60.25 29.17,138.45 5.8,228.8 -4.9,19.05 26.34,162.22 69.16,208.54 139.24,150.57 459.39,122.23 513.43,-79.77 79.15,-296.02 -122.05,-569.83 -357.51,-625.07"
         style="fill:#ffffff;fill-opacity:1;fill-rule:nonzero;stroke:none"
         id="path320" /><path
         d="m 2644.47,2020.49 -1.14,4.87 c -27.87,-6.5 -56.24,-9.92 -84.63,-9.92 -12.45,0 -24.91,0.66 -37.33,2 h 0.04 c -4.7,0.55 -9.42,1.21 -14.18,1.86 l -0.68,-4.95 0.75,4.94 c -12.31,1.93 -20.72,6.17 -28.1,14.78 -11.1,12.92 -19.31,37.13 -27.95,77.89 -8.7,40.74 -18.07,97.89 -32.75,176.94 -1.34,7.26 -1.92,14.85 -1.92,22.79 -0.08,40.32 15.17,89.18 15.22,144.24 0,19.92 -2.03,40.67 -7.57,62.11 v -0.01 c -0.17,0.59 -0.36,2.24 -0.35,4.44 -0.01,7.51 1.8,21.5 5.19,38.48 5.07,25.53 13.65,58.12 24.62,88.18 10.92,30.04 24.44,57.64 38.53,72.81 57.71,62.47 147.82,93.85 236.57,93.82 60.41,0.01 120.08,-14.52 168.26,-43.22 48.18,-28.73 84.87,-71.41 100.1,-128.27 11.85,-44.33 17.35,-88.14 17.35,-130.78 0.11,-239.3 -173.75,-441.92 -371.18,-488.13 h 0.01 l 1.14,-4.87 1.14,-4.87 c 202.29,47.56 378.78,253.66 378.89,497.87 0,43.5 -5.61,88.19 -17.69,133.37 -15.93,59.61 -54.64,104.52 -104.65,134.27 -50.03,29.79 -111.37,44.63 -173.37,44.63 -91.03,-0.02 -183.71,-31.99 -243.91,-97.04 -21,-22.86 -38.28,-65.66 -50.9,-107.25 -6.26,-20.78 -11.27,-41.21 -14.72,-58.57 -3.45,-17.39 -5.36,-31.56 -5.38,-40.43 0.01,-2.68 0.15,-4.88 0.66,-6.93 l 0.01,-0.01 c 5.3,-20.49 7.25,-40.36 7.25,-59.6 0.06,-53.24 -15.13,-101.55 -15.22,-144.24 0,-8.42 0.61,-16.63 2.09,-24.61 19.57,-105.31 29.64,-171.63 41.58,-213.32 6,-20.84 12.45,-35.67 21.32,-46.16 8.85,-10.52 20.29,-16.14 34.23,-18.19 l 0.06,-0.01 c 4.75,-0.66 9.54,-1.33 14.39,-1.89 l 0.05,-0.01 c 12.78,-1.38 25.6,-2.06 38.4,-2.06 29.2,0 58.32,3.52 86.9,10.18 h 0.01 l -1.14,4.87"
         style="fill:#1d2a30;fill-opacity:1;fill-rule:nonzero;stroke:none"
         id="path322" /><path
         d="m 2562.01,2128.81 c -0.43,-5.27 -4.37,-13.18 -10.46,-21.81 -9.09,-13.01 -22.55,-27.86 -33.84,-42.03 -5.65,-7.09 -10.78,-14.03 -14.6,-20.68 -3.78,-6.66 -6.41,-13.03 -6.46,-19.49 -0.08,-5.26 2.18,-10.61 6.65,-14.25 2.12,-1.77 5.27,-1.49 7.04,0.63 1.77,2.12 1.49,5.27 -0.62,7.04 -2.3,2.03 -2.99,3.72 -3.07,6.58 -0.11,4.65 3.22,12.23 8.98,20.64 8.55,12.7 21.87,27.49 33.4,41.74 5.76,7.15 11.09,14.18 15.2,20.93 4.09,6.78 7.07,13.24 7.73,19.74 0.27,2.75 -1.75,5.2 -4.5,5.46 -2.74,0.26 -5.19,-1.75 -5.45,-4.5"
         style="fill:#1d2a30;fill-opacity:1;fill-rule:nonzero;stroke:none"
         id="path324" /><path
         d="m 2644.47,2020.49 c -40.6,-9.46 -82.28,-12.49 -123.64,-8.02 51.13,18.71 87.33,59.93 87.33,59.93 l 36.31,-51.91"
         style="fill:#1d2a30;fill-opacity:1;fill-rule:nonzero;stroke:none"
         id="path326" /><path
         d="m 1121.02,1123.51 c 0,0 -5.27,-28.04 0,-43.03 5.28,-15 23.74,-12.69 26.38,0 2.64,12.7 21.1,43.03 21.1,43.03"
         style="fill:#ffffff;fill-opacity:1;fill-rule:nonzero;stroke:none"
         id="path328" /><path
         d="m 1116.11,1124.43 c -0.02,-0.16 -2.42,-12.79 -2.43,-26.13 0.02,-6.69 0.56,-13.55 2.63,-19.48 3.06,-9 10.82,-13.85 18.2,-13.74 4,0 7.94,1.29 11.16,3.75 3.23,2.45 5.71,6.16 6.63,10.64 0.98,5.08 6.17,15.97 11.04,24.91 2.44,4.52 4.8,8.67 6.55,11.67 1.76,3.01 2.88,4.85 2.88,4.86 1.44,2.36 0.69,5.43 -1.67,6.87 -2.36,1.44 -5.44,0.69 -6.87,-1.67 -0.03,-0.05 -4.68,-7.68 -9.69,-16.98 -5.02,-9.4 -10.39,-20.02 -12.03,-27.63 -0.46,-2.14 -1.5,-3.63 -2.91,-4.73 -1.41,-1.08 -3.24,-1.69 -5.09,-1.69 -3.41,0.11 -6.77,1.69 -8.77,7.06 -1.45,4.07 -2.08,10.1 -2.06,16.16 0,6.07 0.56,12.2 1.13,16.77 0.29,2.28 0.57,4.18 0.78,5.5 0.22,1.32 0.35,2.01 0.35,2.02 0.51,2.71 -1.28,5.32 -3.99,5.83 -2.72,0.51 -5.33,-1.27 -5.84,-3.99"
         style="fill:#1d2a30;fill-opacity:1;fill-rule:nonzero;stroke:none"
         id="path330" /><path
         d="m 1962.19,1086.41 c 0,0 -461.7,106.24 -497.29,102.8 -17.93,-1.73 -67.78,30.88 -115.62,63.5 -47.15,32.14 -92.33,64.28 -103.03,63.54 -21.57,-1.48 -102.6,-63.54 -102.6,-63.54 l -93.09,-111.98 -26.06,-65.13 c 0,0 13.35,-33.36 53.38,13.94 l 65.77,33.95 c 0,0 116.18,-106.77 234.28,-88.97 0,0 493.56,-283.418 586.97,-273.649 93.42,9.77 409.13,328.669 409.13,328.669 l -411.84,-3.13"
         style="fill:#ffffff;fill-opacity:1;fill-rule:nonzero;stroke:none"
         id="path332" /><path
         d="m 1962.19,1086.41 1.12,4.87 c -0.01,0.01 -111.8,25.73 -229.63,51.46 -58.92,12.86 -119.35,25.73 -168.09,35.38 -24.38,4.83 -45.83,8.86 -62.74,11.69 -16.98,2.82 -29.17,4.46 -35.93,4.48 l -2.51,-0.1 -0.95,-0.04 c -3.41,-0.05 -9.69,1.67 -17.32,5.04 -26.98,11.75 -71.5,42.15 -111.36,69.5 -19.97,13.68 -38.84,26.63 -54.08,36.22 -7.62,4.8 -14.33,8.76 -19.91,11.59 -2.79,1.41 -5.3,2.55 -7.59,3.37 -2.31,0.81 -4.33,1.37 -6.57,1.4 l -0.75,-0.03 h 0.03 c -3.75,-0.29 -7.68,-1.61 -12.24,-3.55 -15.75,-6.8 -38.72,-21.95 -58.12,-35.52 -19.35,-13.55 -34.9,-25.47 -34.94,-25.49 l -0.8,-0.77 -93.09,-111.99 -0.8,-1.34 -26.06,-65.12 c -0.48,-1.19 -0.48,-2.53 0,-3.72 0.15,-0.34 1.48,-3.68 4.72,-7.23 3.18,-3.53 8.7,-7.36 16.31,-7.33 5.35,0 11.39,1.84 18.09,6.1 6.71,4.26 14.19,10.95 22.72,21.02 l -3.82,3.24 2.3,-4.45 65.77,33.96 -2.3,4.44 -3.38,-3.68 c 0.17,-0.15 25.14,-23.1 63.84,-46.11 38.71,-22.98 91.18,-46.15 146.66,-46.19 9.24,0 18.56,0.65 27.91,2.06 l -0.75,4.95 -2.49,-4.34 c 0.04,-0.02 119.32,-68.52 251.79,-137.051 66.24,-34.27 135.77,-68.539 195.42,-94.297 29.83,-12.883 57.18,-23.633 80.49,-31.191 23.35,-7.551 42.51,-11.981 56.67,-12.012 1.96,0 3.83,0.082 5.61,0.269 12.9,1.391 28.4,7.723 46.29,17.524 62.38,34.308 153.5,112.297 229.46,181.898 75.9,69.58 136.37,130.66 136.41,130.7 1.42,1.43 1.84,3.59 1.05,5.46 -0.78,1.86 -2.62,3.07 -4.64,3.05 l -411.84,-3.12 0.04,-5 1.12,4.87 -1.12,-4.87 0.03,-5 411.85,3.12 -0.04,5.01 -3.56,3.51 c -0.01,-0.01 -4.91,-4.96 -13.71,-13.69 -30.81,-30.54 -109.17,-107.079 -189.93,-176.969 -40.37,-34.942 -81.36,-68.219 -117.2,-93.2 -17.92,-12.492 -34.55,-22.91 -49.09,-30.402 -14.52,-7.5 -27.02,-12.019 -36.16,-12.937 -1.38,-0.153 -2.91,-0.223 -4.57,-0.223 -12.07,-0.039 -30.76,4.09 -53.58,11.519 -80.09,25.961 -211.82,91.461 -323.17,150.383 -55.71,29.469 -106.37,57.301 -143.11,77.769 -18.37,10.23 -33.25,18.62 -43.55,24.45 -10.29,5.83 -15.96,9.09 -15.98,9.1 -0.98,0.57 -2.11,0.78 -3.23,0.61 -8.82,-1.33 -17.65,-1.95 -26.42,-1.95 -52.64,-0.03 -103.73,22.29 -141.55,44.79 -18.91,11.24 -34.5,22.49 -45.34,30.92 -5.42,4.22 -9.65,7.72 -12.52,10.17 -1.43,1.22 -2.53,2.17 -3.25,2.82 l -1.08,0.96 c -1.54,1.42 -3.81,1.73 -5.67,0.76 l -65.77,-33.95 -1.52,-1.21 c -8.07,-9.55 -14.91,-15.54 -20.45,-19.05 -5.56,-3.52 -9.71,-4.54 -12.73,-4.54 -4.21,0.02 -6.88,1.9 -8.94,4.09 -1,1.08 -1.74,2.21 -2.21,3.03 l -0.5,0.95 -0.1,0.21 -0.24,-0.1 0.24,0.1 v 0 l -0.24,-0.1 0.24,0.1 -4.64,-1.86 4.64,-1.86 25.77,64.4 92.59,111.37 -3.85,3.2 3.04,-3.97 c 0.01,0.01 5.02,3.84 12.92,9.66 11.85,8.73 30.15,21.86 47.39,32.88 8.62,5.51 16.98,10.5 24.05,14.11 6.99,3.63 13.01,5.78 15.54,5.88 h 0.02 0.02 c 0.27,0.03 1.86,-0.26 3.95,-1.09 8.07,-3.1 23.63,-12.66 42.18,-25.03 27.94,-18.6 63.25,-43.66 95.01,-64.12 15.89,-10.24 30.89,-19.32 43.76,-25.93 6.44,-3.3 12.34,-5.99 17.64,-7.89 5.31,-1.88 9.97,-3.04 14.29,-3.06 l 1.92,0.09 1.54,0.05 c 5.27,0.03 17.58,-1.54 34.28,-4.35 58.68,-9.8 173.75,-34.42 274.02,-56.57 50.14,-11.07 96.6,-21.53 130.53,-29.22 16.96,-3.85 30.79,-7 40.38,-9.19 9.59,-2.19 14.92,-3.42 14.93,-3.42 l 1.16,-0.13 -0.03,5"
         style="fill:#1d2a30;fill-opacity:1;fill-rule:nonzero;stroke:none"
         id="path334" /><path
         d="m 2598.84,2052.02 c 28.59,-19.9 62.87,-102.82 32.95,-194.66 l 375.48,28.68 c 0,0 -96.55,153.9 -119.49,292.43 -22.95,138.53 -196.37,36.96 -196.37,36.96 l -92.57,-163.41"
         style="fill:#ffffff;fill-opacity:1;fill-rule:nonzero;stroke:none"
         id="path336" /><path
         d="m 2595.99,2047.91 c 9.08,-6.24 20.02,-21.12 28.26,-41.76 8.29,-20.64 14.12,-47.02 14.11,-76.45 0,-22.21 -3.3,-46.17 -11.32,-70.79 -0.52,-1.59 -0.21,-3.33 0.82,-4.64 1.03,-1.32 2.64,-2.03 4.31,-1.9 l 375.48,28.68 c 1.75,0.14 3.29,1.17 4.08,2.74 0.79,1.56 0.71,3.42 -0.23,4.91 0,0 -1.47,2.35 -4.14,6.79 -18.67,31.08 -94.86,163.93 -114.65,283.8 -4.77,28.94 -16.18,48.54 -31.66,60.61 -15.47,12.09 -34.5,16.44 -53.8,16.43 -28.36,-0.02 -57.77,-9.22 -80.25,-18.32 -22.47,-9.11 -37.98,-18.19 -38.12,-18.27 -2.38,-1.39 -3.18,-4.46 -1.79,-6.84 1.4,-2.38 4.46,-3.18 6.85,-1.79 0,0.01 0.88,0.52 2.62,1.48 12.12,6.76 64.8,33.85 110.69,33.74 17.88,0 34.46,-4 47.64,-14.31 13.16,-10.31 23.41,-27.14 27.95,-54.37 23.28,-140.02 120.08,-293.98 120.19,-294.27 l 4.24,2.66 -0.38,4.98 -375.48,-28.68 0.38,-4.98 4.75,-1.55 c 8.37,25.68 11.82,50.69 11.82,73.89 0,30.75 -6.06,58.32 -14.83,80.18 -8.84,21.86 -20.16,38.03 -31.83,46.24 -2.27,1.58 -5.39,1.02 -6.96,-1.25 -1.58,-2.27 -1.02,-5.38 1.25,-6.96"
         style="fill:#1d2a30;fill-opacity:1;fill-rule:nonzero;stroke:none"
         id="path338" /><path
         d="m 3087.62,2569.98 c -35.72,213.79 -180.17,288.82 -325.03,283.16 0,0 -23.44,3.13 -56.74,7.54 -219.69,29.13 -326.07,-64.93 -343.77,-153.59 -12.77,-64.02 14.85,-153.05 140.28,-194.84 0,0 -30.63,38.49 -20.34,87.98 5.96,-16.14 13.74,-32.93 23.97,-50.2 41.9,-70.83 49.35,-105.38 53.88,-131.2 l 11.31,-11.02 c 5.44,30.15 19.76,70.41 56.75,40.69 66.56,-53.48 36.18,-187.62 7.76,-228.92 0,0 60.58,-144.22 254.28,-113.9 0,0 233.36,250.51 197.65,464.3"
         style="fill:#1d2a30;fill-opacity:1;fill-rule:nonzero;stroke:none"
         id="path340" /><path
         d="m 2592.13,2390.1 c 0,0 -16.94,92.09 12.02,86.9 28.97,-5.2 47.09,-101.76 36.23,-157.58 -10.86,-55.83 -36.1,-108.44 -56.34,-89.99 -20.24,18.46 9.82,44.92 9.82,44.92"
         style="fill:#ffffff;fill-opacity:1;fill-rule:nonzero;stroke:none"
         id="path342" /><path
         d="m 2597.05,2391 c 0,0.01 -0.3,1.6 -0.75,4.44 -1.37,8.5 -4.1,27.89 -4.09,45.29 -0.02,9.3 0.82,18.06 2.77,23.86 0.95,2.9 2.17,4.97 3.3,6.09 1.17,1.1 2,1.48 3.59,1.53 l 1.4,-0.14 c 3.65,-0.57 8.24,-4.08 12.64,-10.84 6.61,-10.04 12.44,-26.42 16.41,-45.1 4,-18.7 6.25,-39.75 6.25,-59.42 0,-13.1 -1,-25.6 -3.09,-36.34 -4.6,-23.66 -11.87,-46.79 -20.07,-63.66 -4.09,-8.44 -8.43,-15.3 -12.53,-19.78 -2.04,-2.24 -4.02,-3.87 -5.75,-4.87 -1.74,-1.01 -3.18,-1.38 -4.41,-1.39 -1.57,0.03 -3.16,0.53 -5.32,2.46 -4.14,3.87 -5.3,7.36 -5.37,11.22 -0.07,5.71 3.48,12.53 7.42,17.7 1.94,2.58 3.91,4.76 5.37,6.27 l 1.75,1.73 0.47,0.44 0.12,0.11 c 2.08,1.83 2.28,4.99 0.45,7.06 -1.82,2.07 -4.98,2.27 -7.05,0.45 -0.16,-0.15 -4.58,-4.03 -9.11,-10.06 -4.48,-6.04 -9.34,-14.22 -9.42,-23.7 -0.06,-6.37 2.6,-13.19 8.64,-18.61 3.47,-3.21 7.71,-5.09 12.05,-5.07 3.34,0 6.54,1.06 9.43,2.74 5.06,2.96 9.46,7.77 13.67,13.87 12.48,18.31 23.19,49.13 29.47,81.18 2.25,11.57 3.27,24.64 3.28,38.25 -0.01,27.25 -4.11,56.63 -11.24,80.09 -3.57,11.74 -7.89,22.01 -13.06,29.91 -5.16,7.82 -11.3,13.71 -19.23,15.21 -1.07,0.19 -2.12,0.29 -3.17,0.29 -4.14,0.05 -8.02,-1.74 -10.68,-4.48 -4.01,-4.12 -5.98,-9.73 -7.27,-16.05 -1.26,-6.35 -1.71,-13.55 -1.71,-20.95 0.01,-24.51 4.99,-51.38 5,-51.54 0.5,-2.71 3.11,-4.51 5.83,-4.01 2.71,0.5 4.51,3.1 4.01,5.82"
         style="fill:#1d2a30;fill-opacity:1;fill-rule:nonzero;stroke:none"
         id="path344" /><path
         d="M 3623.24,842.379 C 3420.43,606.48 3140.93,441.781 2833.33,346.48 c -63.6,-19.699 -128.4,-36.398 -194,-50.199 -17.6,-3.699 -35.29,-7.199 -53,-10.5 -36.6,-6.801 -73.3,-12.601 -110.19,-17.601 -18.4,221.101 -66.7,449.699 -105.4,663 -8.11,44.902 -15.81,89.2 -22.81,132.49 -1.3,8.61 -2.69,17.21 -4,25.71 -12.5,81.6 -21.9,159.8 -25.79,233.2 -11.01,213.3 25.29,386.09 170.5,482.9 31.39,21 67.99,38.4 110.19,51.9 l 0.21,0.1 c 1.79,1.6 16.49,13.6 40.4,29.8 62.69,42.2 189.29,112.6 315.59,95.4 5.71,-0.8 11.4,-1.7 17.1,-2.9 22.9,-4.6 45.71,-12.3 68,-23.7 0,0 94.4,-14.51 194,-62.3 67.81,-32.6 137.81,-80.7 182.2,-150.2 68.8,-107.7 153.4,-571.1 206.91,-901.201"
         style="fill:#969796;fill-opacity:1;fill-rule:nonzero;stroke:none"
         id="path346" /><g
         id="g348"><g
           id="g350"
           clip-path="url(#clipPath354)"><path
             d="m 2412.37,734.641 c -12.39,66.82 -25,132.828 -36.71,197.429 -0.13,0.7 -0.26,1.41 -0.39,2.11 102.47,66.39 221.52,149.15 256.52,196.16 16.16,21.69 53.11,73.8 74.92,148.62 -1.3,-6.97 -59.92,-319.55 -169.88,-414.78 0,0 -43.78,-96.328 -124.46,-129.539"
             style="fill:#747576;fill-opacity:1;fill-rule:nonzero;stroke:none"
             id="path356" /><path
             d="m 2538.98,282.602 c 16.35,182.32 48.44,443.796 100.35,477.98 0,0 41,289.698 84.4,437.298 81.55,277.17 -31.85,549.16 179.19,678.78 -6.94,-20.8 -12.18,-43.59 -16.19,-68.28 -16.09,-98.7 -119.5,-619.8 -207.69,-1060.9 -20.11,-100.398 -39.41,-196.699 -56.7,-282.898 v -0.102 c -12.96,-64.25 -24.69,-122.8 -34.94,-173.41 -0.66,-0.121 -1.32,-0.25 -1.98,-0.371 -15.46,-2.867 -30.93,-5.57 -46.44,-8.097 m 298.58,1606.388 c -78.06,0 -129.23,10.29 -129.23,10.29 42.36,32.55 132.6,60.91 225.55,80.47 6.82,-0.43 13.65,-1.1 20.48,-2.03 v 0 0 l -0.02,0.01 c 4.31,-0.61 8.59,-1.27 12.83,-2.06 -2.1,-1.79 -4.17,-3.59 -6.14,-5.39 -4.7,-4.4 -9.09,-8.9 -13.29,-13.5 -16.84,-18.87 -29.53,-40.46 -39.28,-64.95 -25.36,-2.04 -49.18,-2.84 -70.9,-2.84"
             style="fill:#747576;fill-opacity:1;fill-rule:nonzero;stroke:none"
             id="path358" /></g></g><path
         d="m 3623.24,842.379 -3.8,3.262 C 3417.38,610.59 3138.72,446.332 2831.85,351.25 2768.4,331.609 2703.76,314.941 2638.3,301.18 c -17.56,-3.7 -35.22,-7.2 -52.88,-10.481 -36.52,-6.789 -73.13,-12.578 -109.96,-17.57 l 0.68,-4.949 4.98,0.41 c -18.44,221.539 -66.79,450.281 -105.46,663.48 -8.11,44.871 -15.8,89.15 -22.79,132.4 l -4.94,-0.8 4.95,0.75 c -1.31,8.64 -2.7,17.25 -4.01,25.72 -12.48,81.5 -21.86,159.55 -25.74,232.71 v -0.01 c -1.19,23.1 -1.82,45.71 -1.82,67.78 -0.01,90.57 10.69,172.12 37.29,241.5 26.62,69.39 68.99,126.63 132.81,169.2 l 0.01,0.01 c 30.96,20.7 67.13,37.91 108.93,51.28 l 0.8,0.34 0.21,0.1 0.99,0.69 c 0.67,0.59 4.83,4.03 11.62,9.18 6.82,5.17 16.4,12.17 28.27,20.22 l -0.01,-0.01 c 55.66,37.52 162.3,97.28 272.89,97.2 13.04,0 26.15,-0.82 39.24,-2.61 l -0.02,0.01 c 5.64,-0.8 11.22,-1.68 16.76,-2.84 l 0.05,-0.01 c 22.47,-4.52 44.83,-12.06 66.7,-23.25 l 1.52,-0.5 c 0,0 1.4,-0.21 4.14,-0.69 19.16,-3.38 101.97,-19.65 188.46,-61.17 67.3,-32.35 136.51,-80.02 180.15,-148.38 16.65,-26 34.89,-75 53.24,-138.53 55.19,-190.75 112.83,-513.3 152.94,-760.778 l 4.94,0.797 -3.8,3.262 3.8,-3.262 4.93,0.801 c -26.76,165.1 -61.29,363.53 -97.76,534.25 -18.24,85.36 -36.95,163.79 -55.45,227.71 -18.53,63.97 -36.67,113.28 -54.42,141.13 -45.14,70.64 -115.94,119.16 -184.24,152.02 -100.35,48.14 -195.13,62.67 -195.41,62.73 l -0.76,-4.94 2.28,4.45 c -22.72,11.62 -45.97,19.47 -69.29,24.15 l 0.04,-0.01 c -5.87,1.24 -11.67,2.15 -17.43,2.96 h -0.02 c -13.57,1.85 -27.12,2.7 -40.59,2.7 -114.19,-0.08 -221.98,-60.94 -278.48,-98.9 l -0.01,-0.01 c -12.03,-8.16 -21.75,-15.26 -28.71,-20.53 -6.98,-5.31 -11.07,-8.66 -12.2,-9.66 l 3.32,-3.75 -2.32,4.43 -0.21,-0.1 2.32,-4.43 -1.52,4.76 c -42.59,-13.62 -79.62,-31.22 -111.45,-52.5 v 0 c -65.61,-43.72 -109.41,-102.95 -136.59,-173.94 -27.21,-71 -37.96,-153.73 -37.97,-245.08 0,-22.26 0.64,-45.05 1.84,-68.3 h 0.01 c 3.9,-73.64 13.32,-151.99 25.84,-233.7 1.31,-8.53 2.71,-17.12 4,-25.69 l 0.01,-0.05 c 7.01,-43.33 14.71,-87.669 22.82,-132.591 38.72,-213.391 86.98,-441.848 105.33,-662.527 0.12,-1.371 0.78,-2.621 1.86,-3.481 1.07,-0.859 2.44,-1.242 3.8,-1.062 36.96,5.011 73.75,10.832 110.44,17.652 17.74,3.301 35.47,6.809 53.11,10.52 65.75,13.828 130.7,30.57 194.45,50.308 308.33,95.531 588.67,260.66 792.22,497.422 0.96,1.117 1.38,2.59 1.14,4.059 l -4.93,-0.801"
         style="fill:#1d2a30;fill-opacity:1;fill-rule:nonzero;stroke:none"
         id="path360" /><path
         d="m 2486.12,1808.38 c -242.17,-57.48 -315.22,-354.67 -432.09,-443.46 -116.87,-88.81 -180.93,-200.3 -180.93,-200.3 0,0 -103.95,-17.42 -103.95,-55.23 0,-37.8 -34.65,-244.609 173.67,-303.511 208.33,-58.879 268.87,26.441 268.87,26.441 0,0 355.07,210.68 420.1,298.02 32.52,43.67 149.29,210.53 57.27,437.85 l -202.94,240.19"
         style="fill:#969796;fill-opacity:1;fill-rule:nonzero;stroke:none"
         id="path362" /><g
         id="g364"><g
           id="g366"
           clip-path="url(#clipPath370)"><path
             d="m 2056.35,875.898 c -236.65,0 -250.37,178.752 -241.21,273.082 27.9,10.6 57.99,15.6 57.99,15.6 0,0 3.2,5.6 9.51,15.2 -34.4,-169.5 263.79,-296.499 263.79,-296.499 -33.13,-5.051 -63.06,-7.383 -90.08,-7.383"
             style="fill:#747576;fill-opacity:1;fill-rule:nonzero;stroke:none"
             id="path372" /></g></g><path
         d="m 2484.96,1813.25 c -122.98,-29.22 -202.66,-119.16 -266,-212.04 -31.7,-46.47 -59.38,-93.79 -86.35,-134.88 -26.94,-41.1 -53.24,-75.92 -81.6,-97.43 -117.76,-89.51 -182.04,-201.47 -182.25,-201.79 l 4.34,-2.49 -0.83,4.93 c -0.15,-0.03 -26.31,-4.4 -52.79,-13.64 -13.26,-4.65 -26.59,-10.47 -36.99,-17.87 -5.19,-3.71 -9.68,-7.83 -12.98,-12.57 -3.29,-4.72 -5.37,-10.19 -5.36,-16.08 0.02,-8.86 -2.15,-29.2 -2.16,-54.99 0.01,-38.84 4.89,-90.72 29.86,-138.81 24.93,-48.11 70.27,-92.149 149.61,-114.52 53.82,-15.211 98,-20.91 133.99,-20.91 104.37,-0.09 139.73,48.25 140.32,49.262 l -4.08,2.898 2.55,-4.3 c 0.04,0.019 88.85,52.722 185.86,116.378 48.5,31.832 99.05,66.402 141.63,98.542 42.6,32.19 77.12,61.71 94.07,84.41 23.87,32.06 92.89,130.06 92.9,269.76 0,52.31 -9.7,110.43 -35.01,172.95 -1.04,2.56 -3.95,3.8 -6.51,2.76 -2.56,-1.03 -3.79,-3.95 -2.76,-6.51 24.83,-61.35 34.28,-118.12 34.28,-169.2 0.01,-136.34 -67.47,-232.31 -90.92,-263.79 -15.56,-20.97 -49.81,-50.53 -92.08,-82.4 -63.44,-47.9 -145.13,-101.51 -210.9,-143.111 -32.9,-20.797 -61.82,-38.598 -82.51,-51.2 -10.35,-6.3 -18.64,-11.3 -24.34,-14.73 -5.7,-3.418 -8.8,-5.258 -8.81,-5.258 l -1.52,-1.41 1.07,-0.762 -1.07,0.77 v -0.008 l 1.07,-0.762 -1.07,0.77 c -0.43,-0.418 -32.56,-44.969 -132.17,-45.059 -34.93,0 -78.2,5.531 -131.27,20.531 -76.98,21.829 -119.54,63.618 -143.45,109.508 -23.87,45.903 -28.75,96.191 -28.74,134.201 0,25.36 2.15,44.97 2.16,54.99 0.01,3.56 1.18,6.91 3.58,10.38 4.15,6.05 12.24,12 22.12,17.06 14.8,7.63 33.43,13.42 48.26,17.22 7.42,1.9 13.9,3.32 18.51,4.25 2.31,0.47 4.14,0.82 5.4,1.05 1.26,0.23 1.9,0.34 1.91,0.34 1.48,0.25 2.76,1.14 3.5,2.44 l 0.72,1.21 c 7.26,12.27 70.17,114.99 178.91,197.59 30.07,22.89 56.73,58.52 83.91,99.91 40.74,62.1 82.58,137.32 136.67,202.18 54.11,64.88 120.2,119.26 209.63,140.5 2.69,0.64 4.35,3.33 3.71,6.02 -0.64,2.68 -3.33,4.34 -6.02,3.71"
         style="fill:#1d2a30;fill-opacity:1;fill-rule:nonzero;stroke:none"
         id="path374" /><path
         d="m 1141.8,1155.87 c 0,0 -0.14,0.97 -0.35,2.71 -0.65,5.21 -1.95,17.17 -1.94,28.23 -0.04,7.33 0.65,14.38 2.04,18.07 0.86,2.3 2.36,3.86 4.91,5.45 3.8,2.38 9.65,4.02 15.29,6.63 2.82,1.33 5.65,2.97 8.07,5.43 2.42,2.44 4.3,5.8 4.93,9.75 1.16,7.14 5,18.37 10.39,27.25 2.68,4.45 5.76,8.33 8.84,10.91 3.12,2.6 6.05,3.82 8.81,3.81 10.33,0.06 19.05,5.13 25.28,9.86 6.24,4.78 10.07,9.44 10.23,9.63 1.75,2.13 1.44,5.28 -0.69,7.03 -2.14,1.76 -5.29,1.45 -7.04,-0.68 l -0.11,-0.13 c -0.66,-0.78 -4.3,-4.9 -9.48,-8.66 -5.18,-3.81 -11.81,-7.09 -18.19,-7.05 -5.82,0 -10.97,-2.57 -15.23,-6.15 -6.41,-5.41 -11.37,-13.25 -15.19,-21.31 -3.8,-8.08 -6.39,-16.34 -7.48,-22.87 -0.49,-2.6 -1.51,-3.96 -3.58,-5.56 -3.08,-2.37 -8.66,-4.11 -14.37,-6.49 -2.85,-1.22 -5.77,-2.66 -8.43,-4.77 -2.65,-2.09 -5.03,-4.98 -6.36,-8.67 -2.13,-5.97 -2.61,-13.58 -2.64,-21.48 0,-15.72 2.38,-32.23 2.39,-32.36 0.39,-2.73 2.92,-4.63 5.66,-4.24 2.73,0.39 4.63,2.92 4.24,5.66"
         style="fill:#1d2a30;fill-opacity:1;fill-rule:nonzero;stroke:none"
         id="path376" /><path
         d="m 1053.47,1136.66 c 0.03,0.02 14.09,10.06 29.93,21.17 15.8,11.09 33.52,23.32 40.2,27.33 2.37,1.42 3.13,4.5 1.71,6.86 -1.42,2.37 -4.5,3.13 -6.86,1.71 -7.36,-4.43 -24.87,-16.55 -40.79,-27.71 -15.88,-11.14 -29.99,-21.22 -30,-21.22 -2.25,-1.61 -2.77,-4.73 -1.16,-6.98 1.6,-2.25 4.72,-2.77 6.97,-1.16"
         style="fill:#1d2a30;fill-opacity:1;fill-rule:nonzero;stroke:none"
         id="path378" /><path
         d="m 2652.17,1363.1 c -0.01,0 -2.32,-0.56 -6.73,-1.54 -30.85,-6.91 -163.1,-34.61 -294.53,-34.6 -51.94,0 -103.75,4.33 -148.98,15.87 -45.26,11.53 -83.81,30.26 -109.71,58.61 -1.86,2.04 -5.03,2.18 -7.06,0.32 -2.04,-1.86 -2.18,-5.03 -0.32,-7.06 27.81,-30.39 68.22,-49.72 114.62,-61.56 46.42,-11.83 98.95,-16.17 151.45,-16.18 151.75,0.02 303.38,36.38 303.59,36.41 2.68,0.65 4.34,3.34 3.7,6.03 -0.65,2.69 -3.35,4.34 -6.03,3.7"
         style="fill:#1d2a30;fill-opacity:1;fill-rule:nonzero;stroke:none"
         id="path380" /><path
         d="m 1868.31,1166.05 c -0.09,-0.31 -7.65,-25.79 -7.66,-61.36 0.01,-22.73 3.1,-49.62 13.36,-76.63 10.24,-27 27.71,-54.111 56.19,-76.97 84.02,-67.34 186.78,-72.758 218.85,-72.801 6.4,0 10,0.223 10.09,0.231 2.76,0.171 4.85,2.539 4.68,5.3 -0.17,2.762 -2.54,4.852 -5.3,4.68 0,0 -0.78,-0.051 -2.39,-0.102 -1.6,-0.058 -3.99,-0.109 -7.08,-0.109 -30.98,-0.039 -131.66,5.551 -212.59,70.602 -27.01,21.699 -43.39,47.159 -53.11,72.719 -9.71,25.56 -12.7,51.25 -12.7,73.08 0,17.07 1.83,31.78 3.65,42.18 0.91,5.19 1.82,9.32 2.5,12.12 0.33,1.4 0.61,2.47 0.81,3.18 l 0.28,1.03 c 0.79,2.65 -0.72,5.43 -3.37,6.22 -2.64,0.78 -5.43,-0.73 -6.21,-3.37"
         style="fill:#1d2a30;fill-opacity:1;fill-rule:nonzero;stroke:none"
         id="path382" /><path
         d="m 2600.85,1852.78 c 0.01,0 3.57,1.57 10.2,4.34 23.2,9.69 83.58,33.99 155.95,55.83 72.34,21.86 156.75,41.21 227.56,41.19 15.72,0 30.77,-0.95 44.85,-3.02 2.74,-0.4 5.28,1.49 5.68,4.22 0.4,2.73 -1.49,5.27 -4.22,5.67 -14.66,2.16 -30.18,3.13 -46.31,3.13 -82.94,-0.03 -182.14,-25.62 -260.86,-51.14 -78.68,-25.52 -136.77,-51.02 -136.87,-51.06 -2.53,-1.12 -3.68,-4.06 -2.57,-6.59 1.11,-2.53 4.06,-3.68 6.59,-2.57"
         style="fill:#1d2a30;fill-opacity:1;fill-rule:nonzero;stroke:none"
         id="path384" /><path
         d="m 2763.42,1280.97 c 0,0 -0.28,-0.69 -0.87,-2.08 -4.43,-10.43 -25.93,-58.55 -65.41,-109.56 -39.48,-51.04 -96.86,-104.82 -172.82,-127.29 -2.65,-0.78 -4.16,-3.56 -3.38,-6.21 0.79,-2.65 3.57,-4.16 6.22,-3.37 84.12,24.94 145.39,86.27 185.7,141.1 40.31,54.87 59.74,103.45 59.84,103.7 1.03,2.56 -0.22,5.47 -2.78,6.5 -2.57,1.02 -5.48,-0.22 -6.5,-2.79"
         style="fill:#1d2a30;fill-opacity:1;fill-rule:nonzero;stroke:none"
         id="path386" /><path
         d="m 2446.42,982.238 c 0.16,-0.308 30.19,-63.519 94.9,-132.316 64.69,-68.781 164.23,-143.223 303.1,-165.203 2.72,-0.43 5.29,1.429 5.72,4.16 0.43,2.73 -1.43,5.293 -4.16,5.723 -136.07,21.539 -233.67,94.457 -297.37,162.168 -31.84,33.839 -55.17,66.359 -70.52,90.378 -7.67,12.012 -13.35,21.891 -17.1,28.762 -1.87,3.43 -3.27,6.102 -4.19,7.91 -0.91,1.809 -1.34,2.711 -1.34,2.711 -1.19,2.5 -4.17,3.559 -6.66,2.367 -2.5,-1.179 -3.56,-4.16 -2.38,-6.66"
         style="fill:#1d2a30;fill-opacity:1;fill-rule:nonzero;stroke:none"
         id="path388" /><path
         d="m 2644.31,296.719 c -4.3,49.332 -10.2,110.082 -17.01,168.34 l -4.96,-0.579 h 5 v 0.102 l -0.04,0.59 c -5.31,45.199 -11.14,88.91 -17.29,124.758 -3.07,17.922 -6.23,33.879 -9.45,47.121 -3.24,13.25 -6.5,23.73 -10.04,31.019 l 0.01,-0.011 c -21.76,44.793 -25.21,111.05 -25.15,145.589 0,7.114 0.14,12.883 0.27,16.872 0.14,3.992 0.27,6.14 0.27,6.152 0.07,1.168 -0.27,2.34 -0.98,3.289 -30.09,40.18 -35.2,109.711 -35.09,147.758 0,8.23 0.22,14.991 0.44,19.691 0.22,4.69 0.43,7.25 0.43,7.26 0.23,2.75 -1.82,5.17 -4.57,5.39 -2.76,0.23 -5.17,-1.82 -5.4,-4.57 -0.01,-0.1 -0.9,-10.96 -0.9,-27.771 0.11,-38.91 4.47,-109.571 37.07,-153.731 l 4.01,2.992 -4.99,0.301 c 0,-0.082 -0.56,-9.16 -0.56,-23.633 0.06,-35.226 3.13,-102.187 26.15,-149.949 v -0.008 c 2.97,-6.05 6.18,-16.132 9.31,-29.011 9.45,-38.739 18.59,-103.059 26.53,-170.68 l 4.97,0.582 h -5 v -0.102 l 0.03,-0.582 c 6.79,-58.128 12.68,-118.796 16.98,-168.046 0.24,-2.75 2.66,-4.793 5.41,-4.551 2.75,0.238 4.79,2.668 4.55,5.418"
         style="fill:#1d2a30;fill-opacity:1;fill-rule:nonzero;stroke:none"
         id="path390" /><path
         d="m 2856.52,2490.65 c -0.18,0 -0.37,0.01 -0.55,0.03 -21.78,2.41 -43,8.48 -63.35,15.16 -2.62,0.87 -4.05,3.69 -3.19,6.31 0.69,2.11 2.65,3.45 4.75,3.45 0.52,0 1.04,-0.09 1.56,-0.26 20.09,-6.6 40.68,-12.44 61.33,-14.72 2.74,-0.31 4.72,-2.78 4.42,-5.52 -0.29,-2.56 -2.45,-4.45 -4.97,-4.45"
         style="fill:#758288;fill-opacity:1;fill-rule:nonzero;stroke:none"
         id="path392" /><path
         d="m 2750.15,2522.04 c -0.7,0 -1.42,0.15 -2.09,0.46 -83.74,38.67 -171.45,77.32 -225.59,154.21 l -0.1,0.14 c -11.13,17.02 -16.25,36.36 -16.25,55.69 0.04,44.79 27.24,89.86 71.49,108.9 0.64,0.28 1.31,0.41 1.97,0.41 1.94,0 3.79,-1.14 4.6,-3.03 1.09,-2.54 -0.09,-5.48 -2.63,-6.57 -40.29,-17.21 -65.47,-58.93 -65.43,-99.71 0.01,-17.56 4.62,-34.88 14.58,-50.15 51.91,-73.89 137.61,-112.17 221.54,-150.81 2.51,-1.16 3.61,-4.13 2.45,-6.63 -0.84,-1.83 -2.65,-2.91 -4.54,-2.91"
         style="fill:#758288;fill-opacity:1;fill-rule:nonzero;stroke:none"
         id="path394" /><path
         d="m 2439.01,2604.68 c -1.4,0 -2.79,0.58 -3.78,1.72 -26.02,29.9 -38.44,61.55 -38.43,91.76 -0.01,49.14 32.8,93.26 88.68,119.52 0.69,0.32 1.41,0.47 2.13,0.47 1.87,0 3.67,-1.06 4.52,-2.87 1.18,-2.49 0.11,-5.47 -2.39,-6.65 -53.47,-25.28 -82.94,-66.06 -82.94,-110.47 0,-27.42 11.2,-56.69 35.98,-85.2 1.81,-2.09 1.59,-5.24 -0.49,-7.06 -0.95,-0.82 -2.12,-1.22 -3.28,-1.22"
         style="fill:#758288;fill-opacity:1;fill-rule:nonzero;stroke:none"
         id="path396" /><path
         d="m 3017.84,2467.2 c -1.97,0 -3.84,1.18 -4.63,3.11 -5.72,14.01 -14.3,27.13 -23.66,39.48 -1.67,2.21 -1.23,5.34 0.97,7.01 0.9,0.68 1.96,1.01 3.01,1.01 1.52,0 3.01,-0.68 4,-1.98 9.62,-12.72 18.72,-26.52 24.93,-41.73 1.05,-2.56 -0.18,-5.48 -2.73,-6.52 -0.62,-0.26 -1.26,-0.38 -1.89,-0.38"
         style="fill:#758288;fill-opacity:1;fill-rule:nonzero;stroke:none"
         id="path398" /><path
         d="m 2972.97,2532.36 c -1.34,0 -2.69,0.54 -3.67,1.61 -22.46,24.37 -56.07,47.51 -89.39,72.24 -33.31,24.78 -66.4,51.17 -87.85,83.05 -14.29,21.24 -23.35,45.08 -23.33,72.09 0,12.42 1.9,25.47 5.99,39.21 0.65,2.17 2.64,3.57 4.79,3.57 0.48,0 0.96,-0.07 1.43,-0.21 2.65,-0.79 4.16,-3.57 3.37,-6.22 -3.84,-12.89 -5.58,-24.96 -5.58,-36.35 0.01,-24.75 8.17,-46.46 21.63,-66.51 13.45,-20.03 32.23,-38.26 53.1,-55.45 41.74,-34.46 91.62,-64.52 123.19,-98.64 1.87,-2.03 1.74,-5.2 -0.29,-7.07 -0.96,-0.88 -2.17,-1.32 -3.39,-1.32"
         style="fill:#758288;fill-opacity:1;fill-rule:nonzero;stroke:none"
         id="path400" /><path
         d="m 4109.13,2000.88 c -1.79,-12.9 -3.6,-25.7 -5.6,-38.6 -59.4,-391.4 -217.1,-775.3 -424.6,-1050.8 -17.79,-23.699 -36.4,-46.699 -55.69,-69.101 C 3420.43,606.48 3140.93,441.781 2833.33,346.48 c -63.6,-19.699 -128.4,-36.398 -194,-50.199 -17.6,-3.699 -35.29,-7.199 -53,-10.5 10.5,51.801 22.6,112.199 36.01,178.699 v 0.102 c 17.29,86.199 36.59,182.5 56.7,282.898 88.19,441.1 191.6,962.2 207.69,1060.9 4.1,25.3 9.5,48.6 16.7,69.8 10.3,30.2 24.41,56.3 44.31,78.6 4.2,4.6 8.59,9.1 13.29,13.5 3.5,3.2 7.3,6.4 11.1,9.5 70.1,55.8 194.01,80.3 418.61,76.7 113.25,-1.78 212.13,3.41 298.09,8.6 207.91,12.55 340.26,25.1 417.8,-61 0.9,-1 1.7,-2.1 2.5,-3.2"
         style="fill:#73cd91;fill-opacity:1;fill-rule:nonzero;stroke:none"
         id="path402" /><g
         id="g404"><g
           id="g406"
           clip-path="url(#clipPath410)"><path
             d="m 2833.33,346.48 c 78.3,335.602 283.7,1219.3 309.2,1373.4 16.7,100.4 46.4,149.7 91.6,173.9 38.05,20.33 86.97,22.83 148.14,22.83 4.42,0 8.91,-0.01 13.47,-0.03 0.36,-0.01 0.73,-0.01 1.1,-0.01 48.18,0 149.77,11.75 268.87,23.51 119.09,11.75 255.7,23.5 373.91,23.5 22.02,0 43.39,-0.41 63.91,-1.3 -59.4,-391.4 -217.1,-775.3 -424.6,-1050.8 -17.79,-23.699 -36.4,-46.699 -55.69,-69.101 v 0 C 3420.43,606.48 3140.93,441.781 2833.33,346.48"
             style="fill:#4cbb7a;fill-opacity:1;fill-rule:nonzero;stroke:none"
             id="path412" /></g></g><path
         d="m 4109.13,2000.88 -4.95,0.69 c -1.79,-12.89 -3.6,-25.67 -5.59,-38.52 v -0.02 C 4039.33,1572.45 3881.85,1189.17 3674.94,914.492 3657.21,890.871 3638.68,867.961 3619.45,845.641 3417.38,610.59 3138.72,446.332 2831.85,351.25 2768.4,331.602 2703.76,314.941 2638.3,301.18 c -17.56,-3.7 -35.22,-7.2 -52.88,-10.481 l 0.91,-4.918 4.9,-0.992 c 10.5,51.813 22.6,112.211 36.01,178.699 l 0.1,0.992 v 0.102 h -5 l 4.9,-0.98 c 17.29,86.199 36.59,182.5 56.7,282.898 88.2,441.15 191.59,962.11 207.73,1061.08 v 0 c 4.06,25.09 9.41,48.12 16.5,68.99 l -0.01,-0.01 c 10.15,29.73 23.92,55.16 43.31,76.89 l -3.73,3.33 3.69,-3.37 c 4.12,4.52 8.43,8.92 13.01,13.22 l -3.41,3.65 3.37,-3.69 c 3.4,3.11 7.14,6.25 10.89,9.31 l -3.16,3.88 3.12,-3.91 c 63.87,50.98 175.62,76.01 373.67,75.95 13.51,0 27.41,-0.11 41.74,-0.34 15.57,-0.25 30.87,-0.36 45.9,-0.36 188.96,0.01 335.62,17.93 446.86,17.91 50.15,0.01 93.05,-3.64 129.32,-14.01 36.28,-10.39 65.9,-27.35 90.18,-54.29 0.66,-0.73 1.37,-1.7 2.18,-2.8 l 4.03,2.95 -4.95,0.69 4.95,-0.69 4.04,2.96 c -0.8,1.08 -1.69,2.32 -2.82,3.58 -25.6,28.46 -57.2,46.47 -94.87,57.21 -37.68,10.76 -81.44,14.4 -132.06,14.4 -112.26,-0.01 -258.5,-17.92 -446.86,-17.91 -14.98,0 -30.23,0.11 -45.75,0.36 -14.37,0.23 -28.33,0.34 -41.89,0.34 -198.74,-0.06 -312.53,-24.64 -379.9,-78.13 l -0.05,-0.04 c -3.84,-3.13 -7.71,-6.39 -11.31,-9.68 l -0.05,-0.04 c -4.8,-4.5 -9.29,-9.1 -13.56,-13.78 l -0.04,-0.04 c -20.42,-22.88 -34.85,-49.63 -45.31,-80.32 v -0.01 c -7.31,-21.53 -12.77,-45.1 -16.9,-70.6 v 0.01 C 2865.75,1710.76 2762.32,1189.5 2674.13,748.461 2654.03,648.07 2634.73,551.77 2617.43,465.57 l -0.09,-0.988 v -0.102 h 5 l -4.9,0.981 c -13.41,-66.492 -25.51,-126.891 -36.01,-178.68 -0.33,-1.621 0.18,-3.32 1.34,-4.5 1.16,-1.179 2.85,-1.711 4.48,-1.41 17.74,3.301 35.47,6.809 53.11,10.52 65.75,13.828 130.69,30.57 194.45,50.308 308.33,95.531 588.67,260.66 792.22,497.422 19.36,22.469 38.03,45.559 55.9,69.359 208.08,276.3 366,660.84 425.54,1053.05 v -0.02 c 2.01,12.95 3.82,25.78 5.62,38.68 0.18,1.29 -0.16,2.6 -0.92,3.65 l -4.04,-2.96"
         style="fill:#1d2a30;fill-opacity:1;fill-rule:nonzero;stroke:none"
         id="path414" /><path
         d="m 3932.32,1956.74 c 31.63,1.35 63.27,2.11 94.9,2.11 4.86,0 9.71,-0.02 14.56,-0.06 2.76,-0.02 5.02,2.2 5.04,4.96 0.02,2.77 -2.2,5.02 -4.96,5.04 -4.88,0.04 -9.76,0.06 -14.64,0.06 -31.79,0 -63.58,-0.77 -95.33,-2.12 -2.76,-0.12 -4.9,-2.45 -4.78,-5.21 0.12,-2.76 2.45,-4.9 5.21,-4.78"
         style="fill:#1d2a30;fill-opacity:1;fill-rule:nonzero;stroke:none"
         id="path416" /><path
         d="m 3863.95,1952.96 c 11.39,0.76 22.77,1.46 34.17,2.09 2.76,0.15 4.87,2.51 4.72,5.27 -0.16,2.76 -2.51,4.87 -5.27,4.71 -11.44,-0.63 -22.86,-1.33 -34.29,-2.09 -2.75,-0.18 -4.84,-2.57 -4.65,-5.32 0.18,-2.76 2.56,-4.84 5.32,-4.66"
         style="fill:#1d2a30;fill-opacity:1;fill-rule:nonzero;stroke:none"
         id="path418" /><path
         d="m 2969.46,909.82 c 53.58,224.87 108.3,449.74 150.13,677.38 15.22,83.33 19.4,180.79 66.38,251.38 27.75,41.73 66.05,59.24 109.5,67.16 43.39,7.87 91.53,5.64 137.06,7.65 130.77,5.83 260.57,26.39 390.42,36.59 2.76,0.22 4.81,2.62 4.6,5.38 -0.22,2.75 -2.63,4.81 -5.38,4.59 -130.38,-10.25 -260.07,-30.79 -390.08,-36.57 -44.91,-2.03 -93.44,0.31 -138.4,-7.8 -44.91,-8.05 -86.64,-27.04 -116.06,-71.47 -48.96,-74.02 -52.65,-172.83 -67.88,-255.11 -41.76,-227.26 -96.43,-451.96 -150.02,-676.859 -0.64,-2.692 1.02,-5.379 3.7,-6.02 2.69,-0.641 5.39,1.008 6.03,3.699"
         style="fill:#1d2a30;fill-opacity:1;fill-rule:nonzero;stroke:none"
         id="path420" /><path
         d="m 2949.1,823.191 c 3.6,15.547 7.23,31.09 10.88,46.641 0.63,2.68 -1.04,5.379 -3.73,6.008 -2.68,0.629 -5.38,-1.039 -6.01,-3.731 -3.65,-15.55 -7.28,-31.097 -10.88,-46.66 -0.62,-2.699 1.06,-5.379 3.75,-6 2.69,-0.617 5.37,1.051 5.99,3.742"
         style="fill:#1d2a30;fill-opacity:1;fill-rule:nonzero;stroke:none"
         id="path422" /><path
         d="m 2838.2,345.34 c 29.47,126.281 58.82,252.601 88.04,378.941 0.62,2.688 -1.05,5.367 -3.74,5.989 -2.69,0.628 -5.38,-1.051 -6,-3.739 -29.22,-126.332 -58.57,-252.64 -88.04,-378.922 -0.62,-2.679 1.05,-5.371 3.74,-6 2.69,-0.629 5.38,1.039 6,3.731"
         style="fill:#1d2a30;fill-opacity:1;fill-rule:nonzero;stroke:none"
         id="path424" /></g></g></svg>
