<?xml version="1.0" encoding="UTF-8" standalone="no"?>
<svg
   xmlns:dc="http://purl.org/dc/elements/1.1/"
   xmlns:cc="http://creativecommons.org/ns#"
   xmlns:rdf="http://www.w3.org/1999/02/22-rdf-syntax-ns#"
   xmlns:svg="http://www.w3.org/2000/svg"
   xmlns="http://www.w3.org/2000/svg"
   xmlns:sodipodi="http://sodipodi.sourceforge.net/DTD/sodipodi-0.dtd"
   xmlns:inkscape="http://www.inkscape.org/namespaces/inkscape"
   xml:space="preserve"
   height="700"
   width="700"
   version="1.1"
   id="svg2"
   sodipodi:docname="isro.svg"
   inkscape:version="0.92.3 (2405546, 2018-03-11)"
   viewBox="0 0 350 350"><sodipodi:namedview
     pagecolor="#ffffff"
     bordercolor="#666666"
     borderopacity="1"
     objecttolerance="10"
     gridtolerance="10"
     guidetolerance="10"
     inkscape:pageopacity="0"
     inkscape:pageshadow="2"
     inkscape:window-width="1920"
     inkscape:window-height="1001"
     id="namedview1758"
     showgrid="false"
     inkscape:zoom="0.81379307"
     inkscape:cx="89.667304"
     inkscape:cy="346.48431"
     inkscape:window-x="-9"
     inkscape:window-y="-9"
     inkscape:window-maximized="1"
     inkscape:current-layer="g12"
     fit-margin-top="0"
     fit-margin-left="0"
     fit-margin-right="0"
     fit-margin-bottom="0"
     viewbox-width="699" /><metadata
     id="metadata8"><rdf:RDF><cc:Work
         rdf:about=""><dc:format>image/svg+xml</dc:format><dc:type
           rdf:resource="http://purl.org/dc/dcmitype/StillImage" /><dc:title></dc:title><cc:license
           rdf:resource="http://creativecommons.org/licenses/by-sa/4.0/" /></cc:Work><cc:License
         rdf:about="http://creativecommons.org/licenses/by-sa/4.0/"><cc:permits
           rdf:resource="http://creativecommons.org/ns#Reproduction" /><cc:permits
           rdf:resource="http://creativecommons.org/ns#Distribution" /><cc:requires
           rdf:resource="http://creativecommons.org/ns#Notice" /><cc:requires
           rdf:resource="http://creativecommons.org/ns#Attribution" /><cc:permits
           rdf:resource="http://creativecommons.org/ns#DerivativeWorks" /><cc:requires
           rdf:resource="http://creativecommons.org/ns#ShareAlike" /></cc:License></rdf:RDF></metadata><defs
     id="defs6" /><g
     transform="matrix(0,1.25,1.25,0,-502.19969,400.94035)"
     id="g12"><g
       id="g823"
       transform="matrix(0.75834704,0,0,0.75834704,-272.07304,137.43536)"><path
         inkscape:connector-curvature="0"
         style="fill:#0e88d3;fill-opacity:1;fill-rule:evenodd;stroke:none;stroke-width:0.89021266"
         d="m 24.864115,461.38662 11.847479,-5.82986 4.489313,20.16714 -11.751849,5.73248 z m 5.638593,24.46519 11.84574,-5.73596 4.584944,20.16889 -11.753589,5.63163 z m 15.091886,65.45671 11.845741,-5.63686 4.68231,20.16715 -11.84574,5.73074 z m 5.735961,24.56084 11.842262,-5.73249 4.588421,20.25755 -11.753589,5.63685 z"
         id="path76" /><path
         inkscape:connector-curvature="0"
         style="fill:#0e88d3;fill-opacity:1;fill-rule:evenodd;stroke:none;stroke-width:0.89021266"
         d="m 127.85059,553.31846 c 0,-1.14722 0.47897,-2.19703 1.34054,-3.15226 0.76324,-0.76793 2.00354,-1.3388 3.24441,-1.3388 1.24554,0 2.29439,0.57087 3.24962,1.3388 0.76325,0.95523 1.33881,2.00504 1.33881,3.15226 0,1.33919 -0.57556,2.58027 -1.33881,3.3435 -0.95523,0.95524 -2.00408,1.3388 -3.24962,1.3388 -1.24087,0 -2.48117,-0.38356 -3.24441,-1.3388 -0.86157,-0.76323 -1.34054,-2.00431 -1.34054,-3.3435 z m 11.56234,-8.31619 h 5.4456 v 12.99849 2.38723 16.82016 c 0.95523,-4.39686 3.05655,-8.31119 6.01589,-11.18155 1.53117,-1.52649 3.91971,-2.96062 6.97738,-4.29981 1.33451,-0.57594 2.6742,-1.05268 4.20069,-1.62393 0.0984,9.36498 0.47746,15.19464 1.43269,17.77469 0.6696,1.71847 1.62427,3.25048 2.77149,4.8753 1.52649,2.00411 2.96432,3.05614 4.39716,3.34177 v -18.92049 l 6.40189,-6.40188 v 22.17186 c -4.87449,6.49461 -8.88821,9.64977 -12.13785,9.64977 -1.43285,0 -2.76661,-0.66799 -3.9138,-1.81521 -2.58006,-2.58003 -4.20596,-6.02235 -4.9692,-10.3209 -0.38397,-2.19609 -0.66941,-6.11563 -0.66941,-11.6597 -1.04887,0.76325 -2.38779,1.62549 -3.62865,2.29508 -1.43285,1.14722 -2.10209,2.19532 -2.10209,3.44089 0,2.86568 1.90959,7.7401 5.63686,14.2347 l -6.59314,6.49925 c -1.52649,-2.48173 -2.86468,-5.06103 -3.81991,-7.45379 v 9.74887 33.63857 32.49276 h -5.4456 v -32.49276 -33.63857 -37.17508 -2.38723 z m 9.83754,4.39716 h 27.80525 v 7.93194 h -27.80525 z m 0,49.59633 h 27.80525 v 8.02582 h -18.91877 c -0.86158,2.10244 -1.43269,4.20459 -1.43269,6.40536 0,2.19608 0.6707,3.91982 1.71957,5.25434 1.71848,1.62481 4.3969,2.29383 8.02583,2.00819 l -6.59313,6.7844 c -3.43696,0.19198 -6.1161,-0.66876 -7.83457,-2.38723 -1.33919,-1.43753 -2.10208,-3.15562 -2.10208,-5.35171 0,-2.10244 0.66923,-4.491 2.10208,-6.97739 1.04888,-2.29442 2.58031,-4.20478 4.1068,-5.73596 h -6.87829 z m 0,32.58491 h 20.73396 c 0,0 4.01353,0.19221 6.01763,2.87059 1.14722,1.81212 1.05366,4.39194 1.05366,4.39194 v 21.69372 h -20.35146 c -2.00878,0 -3.72761,-0.66971 -5.16045,-1.81693 -1.52649,-1.04888 -2.29334,-2.48102 -2.29334,-4.20417 z m 7.30948,19.57425 c -0.0386,2.07438 0.51162,1.9282 3.77298,1.9282 h 9.26725 v -12.51687 c 0,0 0.0988,-1.24443 -0.28514,-1.53005 -0.47762,-0.37929 -1.04963,-0.193 -3.82166,-0.193 h -8.88648 v 11.28068 c -0.0234,0.3939 -0.0414,0.73469 -0.047,1.03104 z"
         id="path84" /><path
         inkscape:connector-curvature="0"
         d="M 134.06025,466.54666 -12.969979,539.07845 239.24773,538.60083 71.488113,518.63001 134.06025,466.54666"
         style="fill:#f47216;fill-opacity:1;fill-rule:evenodd;stroke:none;stroke-width:1.11276579"
         id="path96" /><path
         inkscape:connector-curvature="0"
         style="fill:#f47216;fill-opacity:1;fill-rule:evenodd;stroke:none;stroke-width:0.89021266"
         d="m 124.21846,498.1757 c 0.0168,-0.46508 0.0496,-0.94104 0.0974,-1.43096 l 6.40188,-2.67411 c -1.36219,7.54106 0.74063,10.76098 8.50223,13.60703 V 401.75975 h 5.53949 v 25.51538 h 3.15573 c 0,0 -4.01292,-10.13393 3.72255,-18.73098 7.83381,-6.78493 15.48136,-1.05366 15.48136,-1.05366 0,0 -3.05852,5.54478 -1.62568,14.33382 1.43284,8.21777 5.34823,7.83804 5.34823,7.83804 0,0 4.87425,-1.14773 3.91902,-7.74067 -1.05355,-6.59295 -7.64157,-6.115 -7.64157,-6.115 l 4.87009,-7.26253 c 0,0 4.69703,2.75964 6.19845,8.97341 l 8.32663,5.55166 v 8.21882 l -8.19101,-6.3393 c -0.12743,0.71752 -0.291,1.45803 -0.50422,2.22727 -4.20488,15.95793 -16.24385,10.32014 -19.39517,-1.52657 -2.10244,-8.22246 1.9091,-17.10529 1.9091,-17.10529 0,0 -10.12821,1.14331 -7.73546,15.86038 1.42817,8.21777 4.77619,11.18157 4.77619,11.18157 h -12.61424 v 16.4724 l 3.24962,-6.91479 c 0,0 3.91884,3.53533 9.07427,4.7762 5.35209,1.05356 6.30818,-1.24128 6.40187,-2.67412 -0.66492,-0.95522 -7.06606,-5.4456 -7.06606,-5.4456 l 2.768,-3.15572 17.8686,11.37281 v 8.02582 c 0,0 -8.88734,-7.35676 -10.51217,-8.50397 -0.0639,1.88489 -0.66546,4.48024 -2.97144,6.18629 0.62071,1.19118 1.12625,2.63767 1.25186,4.32588 0.47762,5.06177 -2.00471,8.21881 -2.00471,8.21881 h 14.23646 v 8.31097 h -32.2963 v 17.98681 l 3.24962,-6.99651 c 0,0 3.91884,3.72612 9.07427,4.77968 5.35209,1.04887 6.30818,-1.14641 6.40187,-2.6776 -0.66492,-0.76324 -7.06606,-5.44559 -7.06606,-5.44559 l 2.768,-3.15574 17.8686,11.27893 v 8.11971 c 0,0 -8.88734,-7.16375 -10.51217,-8.31097 -0.0937,2.58006 -1.33497,6.87833 -7.45032,7.64157 -8.11267,1.11496 -12.93031,-2.50688 -14.33381,-3.76254 v 9.87754 h 32.29108 v 8.31619 h -32.29108 v 4.39716 h -5.53949 v -6.06631 c -12.01413,-3.43313 -15.24618,-7.62777 -15.00147,-14.38771 z m 20.54096,-44.64974 v 14.74415 h 9.36462 c 0,0 2.58137,-10e-5 5.06308,-5.06656 1.16335,-2.13739 1.61347,-4.32889 1.7387,-6.20889 -0.55897,0.16249 -1.16097,0.29522 -1.83259,0.37903 -8.11221,1.11491 -12.93001,-2.57013 -14.33381,-3.84773 z"
         id="path98" /></g></g></svg>