<?xml version="1.0" encoding="UTF-8" standalone="no"?>
<!-- Created with Inkscape (http://www.inkscape.org/) -->

<svg
   xmlns:dc="http://purl.org/dc/elements/1.1/"
   xmlns:cc="http://creativecommons.org/ns#"
   xmlns:rdf="http://www.w3.org/1999/02/22-rdf-syntax-ns#"
   xmlns:svg="http://www.w3.org/2000/svg"
   xmlns="http://www.w3.org/2000/svg"
   xmlns:sodipodi="http://sodipodi.sourceforge.net/DTD/sodipodi-0.dtd"
   xmlns:inkscape="http://www.inkscape.org/namespaces/inkscape"
   version="1.1"
   id="svg2"
   xml:space="preserve"
   width="1496"
   height="1496"
   viewBox="0 0 1496 1496"
   sodipodi:docname="testit.svg"
   inkscape:version="0.92.3 (2405546, 2018-03-11)"><metadata
     id="metadata1514"><rdf:RDF><cc:Work
         rdf:about=""><dc:format>image/svg+xml</dc:format><dc:type
           rdf:resource="http://purl.org/dc/dcmitype/StillImage" /></cc:Work></rdf:RDF></metadata><defs
     id="defs6" /><sodipodi:namedview
     id="namedview4"
     pagecolor="#ffffff"
     bordercolor="#666666"
     borderopacity="1.0"
     inkscape:pageshadow="2"
     inkscape:pageopacity="0.0"
     inkscape:pagecheckerboard="0"
     showgrid="false"
     inkscape:zoom="0.25701872"
     inkscape:cx="506.84514"
     inkscape:cy="939.88528"
     inkscape:window-width="1920"
     inkscape:window-height="1001"
     inkscape:window-x="-9"
     inkscape:window-y="-9"
     inkscape:window-maximized="1"
     inkscape:current-layer="g10" /><g
     id="g8"
     inkscape:groupmode="layer"
     inkscape:label="ink_ext_XXXXXX"
     transform="matrix(1.3333333,0,0,-1.3333333,0,1496)"><g
       id="g10"
       transform="matrix(0.1,0,0,0.1,20.426528,0)"><path
         d="m 3533.2,5450.96 -98.97,-2.53 v -0.09 z"
         style="fill:#616e7d;fill-opacity:1;fill-rule:nonzero;stroke:none"
         id="path14"
         inkscape:connector-curvature="0" /><path
         d="m 3960.91,3851.57 c -430.12,430.69 -672.44,942.92 -720.97,1523.59 l -598.77,-66.97 -8.05,-0.85 -8.1,-0.31 c -46.78,-1.49 -108.24,-3.99 -169.03,-11.44 -13.05,-1.54 -26.04,-3.44 -39.03,-5.34 76.37,-764.47 414.16,-1479.57 958.62,-2024.02 629.48,-629.6 1466.47,-976.23 2356.7,-976.23 839.4,0 1631.34,308.5 2246.71,871.52 l -586.24,586.23 c -457.74,-406.28 -1041,-628.86 -1658.83,-628.86 -670.82,0 -1300.47,260.2 -1773.01,732.68"
         style="fill:#616e7d;fill-opacity:1;fill-rule:nonzero;stroke:none"
         id="path16"
         inkscape:connector-curvature="0" /><path
         d="m 5706.69,8930 c -890.4,0 -1727.16,-346.65 -2356.64,-976.1 -74.06,-73.98 -143.9,-150.99 -210.03,-230.71 l 590,-590.06 c 63.88,82.13 131.25,161.43 205.37,235.45 472.47,472.32 1100.94,732.53 1769.67,732.62 670.87,-0.09 1300.52,-260.3 1773.11,-732.62 456.28,-456.45 714.29,-1059.8 730.76,-1705.08 274.14,45.01 549.01,89.07 823.82,133.14 C 8984.51,6612.08 8642.77,7374.37 8063.4,7953.9 7433.92,8583.35 6597.1,8930 5707.04,8930 h -0.35"
         style="fill:#616e7d;fill-opacity:1;fill-rule:nonzero;stroke:none"
         id="path18"
         inkscape:connector-curvature="0" /><path
         d="m 2531.9,8331.19 -344.65,-2331.84 2325.77,350.85 -783,782.93 -590,590.06 -608.12,608"
         style="fill:#aad4c8;fill-opacity:1;fill-rule:nonzero;stroke:none"
         id="path20"
         inkscape:connector-curvature="0" /><path
         d="M 7392.75,3747.75 7978.99,3161.52 8579.28,2561.23 8930.07,4887 6598.12,4542.34 7392.75,3747.75"
         style="fill:#aad4c8;fill-opacity:1;fill-rule:nonzero;stroke:none"
         id="path22"
         inkscape:connector-curvature="0" /></g></g></svg>